<?xml version="1.0" encoding="utf-8"?>
<!-- Generator: Adobe Illustrator 24.1.1, SVG Export Plug-In . SVG Version: 6.00 Build 0)  -->
<svg version="1.1" id="Livello_1" xmlns="http://www.w3.org/2000/svg" xmlns:xlink="http://www.w3.org/1999/xlink" x="0px" y="0px"
	 viewBox="0 0 85.04 86" style="enable-background:new 0 0 85.04 86;" xml:space="preserve">
<style type="text/css">
	.st0{fill:#7985C1;}
	.st1{fill:#4153A0;}
	.st2{opacity:0.6;}
	.st3{fill:#293171;}
	.st4{opacity:0.7;fill:#9FA7D5;}
	.st5{opacity:0.7;}
	.st6{fill:#9FA7D5;}
	.st7{fill:#706F6F;}
	.st8{opacity:0.3;}
	.st9{fill:#FFFFFF;}
	.st10{opacity:0.5;}
	.st11{clip-path:url(#SVGID_2_);}
	.st12{opacity:0.5;fill:#9D9D9C;}
	.st13{clip-path:url(#SVGID_2_);fill:url(#SVGID_3_);}
	.st14{opacity:0.2;}
	.st15{clip-path:url(#SVGID_2_);fill:url(#SVGID_4_);}
	.st16{clip-path:url(#SVGID_6_);}
	.st17{clip-path:url(#SVGID_6_);fill:url(#SVGID_7_);}
	.st18{clip-path:url(#SVGID_6_);fill:url(#SVGID_8_);}
	.st19{clip-path:url(#SVGID_10_);}
	.st20{clip-path:url(#SVGID_10_);fill:url(#SVGID_11_);}
	.st21{clip-path:url(#SVGID_10_);fill:url(#SVGID_12_);}
	.st22{clip-path:url(#SVGID_14_);}
	.st23{clip-path:url(#SVGID_14_);fill:url(#SVGID_15_);}
	.st24{clip-path:url(#SVGID_14_);fill:url(#SVGID_16_);}
	.st25{clip-path:url(#SVGID_18_);}
	.st26{clip-path:url(#SVGID_18_);fill:url(#SVGID_19_);}
	.st27{clip-path:url(#SVGID_18_);fill:url(#SVGID_20_);}
	.st28{clip-path:url(#SVGID_22_);}
	.st29{clip-path:url(#SVGID_22_);fill:url(#SVGID_23_);}
	.st30{clip-path:url(#SVGID_22_);fill:url(#SVGID_24_);}
</style>
<g>
	<defs>
		<ellipse id="SVGID_17_" cx="42.52" cy="42.98" rx="42.5" ry="42.98"/>
	</defs>
	<clipPath id="SVGID_2_">
		<use xlink:href="#SVGID_17_"  style="overflow:visible;"/>
	</clipPath>
	<g class="st11">
		<circle class="st12" cx="42.52" cy="43.5" r="42.5"/>
		<circle class="st1" cx="42.52" cy="42.5" r="42.5"/>
	</g>
	
		<linearGradient id="SVGID_3_" gradientUnits="userSpaceOnUse" x1="-88.7329" y1="-222.1214" x2="4.5307" y2="-222.1214" gradientTransform="matrix(0.5804 0.5804 -0.8276 0.8276 -94.0789 283.5315)">
		<stop  offset="0.32" style="stop-color:#293171;stop-opacity:0.3"/>
		<stop  offset="0.62" style="stop-color:#293171;stop-opacity:0.15"/>
		<stop  offset="1" style="stop-color:#293171;stop-opacity:0"/>
	</linearGradient>
	<path class="st13" d="M53.88,60.38c-1.61,0.94-24.42-0.54-26.03,0.42c-1.22,0.73-0.31-0.06-1.4-0.21c2.34,0.58-1.28,0.64-1.28,0.68
		l53.5,53.76l26.92-25.91L57.87,41.47c-0.72,1.9,0.71,7.36-1.91,7.36c-0.37,0-0.71-0.04-1.04-0.09c-0.54,0.17,2.4,0.6,1.75,0.6
		c-3.54,0,2.01-1.53-1.15-0.04"/>
	<g class="st11">
		<path class="st9" d="M54.86,30.76c0-0.86,0-1.71,0-2.57c0-0.97,0.01-1.94,0-2.91c-0.01-1.74-1.45-3.19-3.17-3.19
			c-5.04-0.01-10.09-0.01-15.13-0.01c-0.2,0-0.4-0.03-0.6,0.05c-0.18,0.18-0.11,0.41-0.11,0.62c-0.04,1.22,0.07,2.45-0.09,3.67
			c-0.28,2.02-1.48,3.21-3.51,3.45c-1.64,0.19-3.28,0.05-4.93,0.1c-0.27,0.01-0.55-0.04-0.81,0.04c-0.15,0.16-0.1,0.35-0.1,0.53
			c0,8.72,0.01,17.43-0.01,26.15c0,1.68,1.39,3.29,3.31,3.29c6.23-0.02,12.46-0.01,18.69-0.01c1.06,0,2.12,0.01,3.18,0
			c1.83-0.01,3.27-1.43,3.27-3.27c0.01-4.62,0.01-9.25-0.01-13.87c0-0.44,0.12-0.75,0.44-1.05c0.5-0.47,0.96-1,1.44-1.49
			c0.47,0.21,0.75,0.53,1.09,0.72c0.09,0.16,0.06,0.31,0.06,0.46c0,5.06,0.01,10.12,0,15.18c-0.01,3.43-2.5,5.91-5.4,6.25
			c-0.97,0.11-1.93,0.07-2.9,0.08c-6.47,0.01-12.94,0-19.4,0.01c-1.49,0-2.9-0.26-4.14-1.16c-1.73-1.27-2.62-2.98-2.62-5.1
			c-0.02-6.38-0.01-12.75-0.01-19.13c0-2.32,0.02-4.64-0.01-6.96c-0.01-1.01,0.26-1.91,0.76-2.75c0.74-1.25,1.71-2.32,2.75-3.33
			c1.89-1.85,3.97-3.44,6.33-4.65c1.07-0.55,2.2-0.84,3.42-0.83c4.91,0.02,9.83,0.01,14.74,0.01c2.39,0,4.27,0.96,5.56,3
			c0.6,0.95,0.86,2.01,0.91,3.12c0.04,0.78,0,1.57,0.01,2.36c0,0.19,0,0.36-0.15,0.5c-0.92,0.91-1.83,1.83-2.74,2.75
			C54.94,30.79,54.9,30.77,54.86,30.76z"/>
		<path class="st9" d="M41.63,49.79c-0.12-0.48,0.06-0.87,0.21-1.26c0.56-1.42,1.37-2.7,2.24-3.94c1.1-1.56,2.44-2.91,3.78-4.25
			c2.12-2.11,4.23-4.24,6.35-6.35c1.7-1.7,3.41-3.4,5.12-5.11c1.45-1.45,2.89-2.89,4.33-4.34c1.19-1.2,3.06-0.89,3.79,0.63
			c0.38,0.79,0.24,1.76-0.4,2.44c-0.8,0.85-1.63,1.67-2.46,2.5c-1.73,1.73-3.46,3.46-5.19,5.19c-2.17,2.17-4.35,4.33-6.51,6.5
			c-1.37,1.37-2.68,2.79-4.14,4.07c-1.79,1.57-3.73,2.93-5.98,3.8C42.42,49.79,42.06,49.95,41.63,49.79z"/>
		<path class="st9" d="M40.63,52.09c3.29,0,6.57,0,9.86,0c0.79,0,1.22,0.5,1.1,1.31c-0.1,0.73-0.34,0.94-1.08,0.94
			c-6.54,0-13.07,0-19.61,0c-1.05,0-1.54-0.75-1.12-1.72c0.16-0.37,0.45-0.53,0.87-0.53c1.52,0.01,3.03,0,4.55,0
			C37.02,52.09,38.82,52.09,40.63,52.09z"/>
		<path class="st9" d="M40.68,33.23c3.31,0,6.62,0,9.92,0c0.33,0,0.61,0.05,0.8,0.35c0.2,0.32,0.18,0.6-0.08,0.89
			c-0.02,0.03-0.05,0.05-0.08,0.08c-0.89,0.92-0.89,0.92-2.16,0.92c-6.07,0-12.13,0-18.2,0c-1.02,0-1.53-0.88-1.05-1.8
			c0.17-0.33,0.45-0.44,0.81-0.44c1.21,0.01,2.41,0,3.62,0C36.4,33.22,38.54,33.22,40.68,33.23C40.68,33.22,40.68,33.22,40.68,33.23
			z"/>
		<path class="st9" d="M47.74,38.05c-0.67,0.67-1.35,1.35-2.03,2.02c-0.18,0.18-0.42,0.11-0.63,0.11c-3.67,0-7.34,0-11.01,0
			c-1.11,0-2.23-0.02-3.34,0c-0.85,0.02-1.01-0.47-1.06-1.1c-0.05-0.73,0.35-1.15,1.07-1.15c4.53,0,9.06,0,13.58,0
			c1.06,0,2.12,0,3.18,0C47.57,37.94,47.65,37.92,47.74,38.05z"/>
		<path class="st9" d="M58.23,39.19c3.34-3.35,6.67-6.7,10-10.04c0.87,0.58,0.76,2.34,0.09,2.99c-0.54,0.52-1.05,1.07-1.58,1.59
			c-1.8,1.79-3.62,3.56-5.39,5.37C60.53,39.94,58.87,40,58.23,39.19z"/>
		<path class="st9" d="M43.34,42.73c-0.47,0.67-0.93,1.33-1.4,2c-0.16,0.22-0.39,0.16-0.6,0.16c-3.05,0-6.09,0-9.14,0
			c-0.47,0-0.95,0-1.42,0c-0.72,0-1.02-0.27-1.11-0.98c-0.09-0.73,0.35-1.25,1.07-1.26c4.07,0,8.14,0,12.2,0
			C43.06,42.66,43.2,42.61,43.34,42.73z"/>
		<path class="st9" d="M40.42,47.42c-0.24,0.72-0.45,1.41-0.54,2.1c-0.17,0.12-0.32,0.09-0.46,0.09c-2.86,0-5.73,0-8.59,0
			c-0.42,0-0.83-0.02-1.02-0.46c-0.22-0.49-0.2-1,0.09-1.46c0.19-0.29,0.5-0.33,0.82-0.32c1.79,0.01,3.57,0,5.36,0
			c1.2,0,2.41,0,3.61,0C39.92,47.37,40.14,47.34,40.42,47.42z"/>
		<path class="st9" d="M46.74,49.51c0.96-0.6,1.85-1.3,2.72-2.01c0.12-0.1,0.26-0.13,0.41-0.12c0.2,0.01,0.4,0.01,0.6,0
			c0.42-0.02,0.83,0.01,1,0.48c0.2,0.54,0.2,1.07-0.15,1.56c-0.13,0.18-0.33,0.21-0.54,0.2c-1.33,0-2.66,0-4,0
			C46.76,49.58,46.75,49.54,46.74,49.51z"/>
	</g>
	
		<radialGradient id="SVGID_4_" cx="-494.0068" cy="-320.3156" r="47.1962" gradientTransform="matrix(9.171787e-17 1.4979 -1.4979 9.171787e-17 -460.7676 758.7535)" gradientUnits="userSpaceOnUse">
		<stop  offset="0" style="stop-color:#FFFFFF;stop-opacity:0.3"/>
		<stop  offset="1" style="stop-color:#FFFFFF;stop-opacity:0"/>
	</radialGradient>
	<polygon class="st15" points="-51.67,89.49 -51.67,-51.9 89.72,-51.9 89.72,89.49 	"/>
</g>
<g>
	<defs>
		<ellipse id="SVGID_21_" cx="164.57" cy="42.98" rx="42.5" ry="42.98"/>
	</defs>
	<clipPath id="SVGID_6_">
		<use xlink:href="#SVGID_21_"  style="overflow:visible;"/>
	</clipPath>
	
		<radialGradient id="SVGID_7_" cx="-494.0068" cy="-401.7963" r="47.1962" gradientTransform="matrix(9.171787e-17 1.4979 -1.4979 9.171787e-17 -460.7676 758.7535)" gradientUnits="userSpaceOnUse">
		<stop  offset="0" style="stop-color:#FFFFFF;stop-opacity:0.3"/>
		<stop  offset="1" style="stop-color:#FFFFFF;stop-opacity:0"/>
	</radialGradient>
	<polygon class="st17" points="70.38,89.49 70.38,-51.9 211.76,-51.9 211.76,89.49 	"/>
</g>
</svg>
