<?xml version="1.0" encoding="utf-8"?>
<!-- Generator: Adobe Illustrator 24.1.1, SVG Export Plug-In . SVG Version: 6.00 Build 0)  -->
<svg version="1.1" id="Livello_1" xmlns="http://www.w3.org/2000/svg" xmlns:xlink="http://www.w3.org/1999/xlink" x="0px" y="0px"
	 viewBox="0 0 85.04 86" style="enable-background:new 0 0 85.04 86;" xml:space="preserve">
<style type="text/css">
	.st0{fill:#7985C1;}
	.st1{fill:#4153A0;}
	.st2{opacity:0.6;}
	.st3{fill:#293171;}
	.st4{opacity:0.7;fill:#9FA7D5;}
	.st5{opacity:0.7;}
	.st6{fill:#9FA7D5;}
	.st7{fill:#706F6F;}
	.st8{opacity:0.3;}
	.st9{fill:#FFFFFF;}
	.st10{opacity:0.5;}
	.st11{clip-path:url(#SVGID_2_);}
	.st12{opacity:0.5;fill:#9D9D9C;}
	.st13{clip-path:url(#SVGID_2_);fill:url(#SVGID_3_);}
	.st14{opacity:0.2;}
	.st15{clip-path:url(#SVGID_2_);fill:url(#SVGID_4_);}
	.st16{clip-path:url(#SVGID_6_);}
	.st17{clip-path:url(#SVGID_6_);fill:url(#SVGID_7_);}
	.st18{clip-path:url(#SVGID_6_);fill:url(#SVGID_8_);}
	.st19{clip-path:url(#SVGID_10_);}
	.st20{clip-path:url(#SVGID_10_);fill:url(#SVGID_11_);}
	.st21{clip-path:url(#SVGID_10_);fill:url(#SVGID_12_);}
	.st22{clip-path:url(#SVGID_14_);}
	.st23{clip-path:url(#SVGID_14_);fill:url(#SVGID_15_);}
	.st24{clip-path:url(#SVGID_14_);fill:url(#SVGID_16_);}
	.st25{clip-path:url(#SVGID_18_);}
	.st26{clip-path:url(#SVGID_18_);fill:url(#SVGID_19_);}
	.st27{clip-path:url(#SVGID_18_);fill:url(#SVGID_20_);}
	.st28{clip-path:url(#SVGID_22_);}
	.st29{clip-path:url(#SVGID_22_);fill:url(#SVGID_23_);}
	.st30{clip-path:url(#SVGID_22_);fill:url(#SVGID_24_);}
</style>
<g>
	<defs>
		<ellipse id="SVGID_13_" cx="42.52" cy="42.98" rx="42.5" ry="42.98"/>
	</defs>
	<clipPath id="SVGID_2_">
		<use xlink:href="#SVGID_13_"  style="overflow:visible;"/>
	</clipPath>
	<g class="st11">
		<circle class="st12" cx="42.52" cy="43.5" r="42.5"/>
		<circle class="st1" cx="42.52" cy="42.5" r="42.5"/>
	</g>
	
		<linearGradient id="SVGID_3_" gradientUnits="userSpaceOnUse" x1="-66.4233" y1="-149.6036" x2="19.9299" y2="-149.6036" gradientTransform="matrix(0.5804 0.5804 -0.8276 0.8276 -42.8727 212.6904)">
		<stop  offset="0.32" style="stop-color:#293171;stop-opacity:0.3"/>
		<stop  offset="0.62" style="stop-color:#293171;stop-opacity:0.15"/>
		<stop  offset="1" style="stop-color:#293171;stop-opacity:0"/>
	</linearGradient>
	<path class="st13" d="M82.2,109.71l20.1-19.06l-39-39c-0.88,1.88-6.96-0.44-8.29,0.32c-4.18,2.39,0,0-2.23,1.27
		c-1.95,1.13,0,0-1.95,1.13c-3.03,1.75-4.71,4.85-9.46,4.87c-3.55,0.02-3.06,0.02-7.92,0.02c0,0,0.88,0.02,0,0"/>
	<g class="st11">
		<path class="st9" d="M43.6,24.94c0,0.72,0.03,1.46-0.01,2.18c-0.05,1.02-0.67,1.64-1.54,1.62c-0.77-0.02-1.33-0.65-1.4-1.61
			c-0.05-0.69,0.07-1.38-0.09-2.06c-2.05-0.42-6.44,1.09-8.77,3.03c0.28,0.67,0.89,1.12,1.31,1.7c0.65,0.88,0.65,1.53,0.01,2.1
			c-0.72,0.65-1.56,0.56-2.32-0.24c-0.47-0.5-0.79-1.14-1.49-1.57c-2.28,2.3-3.83,4.95-4.67,8.16c0.74,0.15,1.37,0.28,1.99,0.41
			c1.13,0.23,1.73,0.91,1.54,1.75c-0.2,0.89-0.99,1.34-2.05,1.13c-0.63-0.12-1.25-0.26-1.98-0.2c-0.32,3.25,0.17,6.27,1.63,9.16
			c0.75-0.22,1.25-0.64,1.81-0.94c0.98-0.52,1.8-0.43,2.23,0.24c0.45,0.71,0.16,1.71-0.71,2.23c-1.5,0.92-3.01,1.83-4.55,2.69
			c-1.17,0.65-1.76,0.51-2.41-0.66c-2.33-4.16-3.33-8.6-2.86-13.37c0.4-4.06,1.67-7.81,4.11-11.08c5.56-7.44,13.02-10.7,22.24-9.39
			C55.4,21.61,63,29.14,64.73,38.87c0.94,5.26,0.04,10.25-2.46,14.95c-0.73,1.37-1.49,1.56-2.83,0.77
			c-1.48-0.87-2.98-1.72-4.43-2.62c-0.83-0.51-1.02-1.43-0.54-2.15c0.42-0.63,1.14-0.77,1.98-0.38c0.66,0.31,1.23,0.81,1.92,1.02
			c1.4-1.86,2.25-6.76,1.65-9.14c-0.69-0.04-1.36,0.14-2.04,0.27c-0.97,0.18-1.7-0.32-1.88-1.2c-0.18-0.85,0.33-1.49,1.37-1.72
			c0.63-0.14,1.26-0.26,1.9-0.39c0.04-0.01,0.07-0.06,0.11-0.09C58.37,31.63,50.97,24.98,43.6,24.94z"/>
		<path class="st9" d="M42.15,46.57c-2.01,0.03-3.82-1.63-4.02-3.69c-0.2-2.08,1.2-3.88,3.39-4.18c0.75-0.1,1.27-0.37,1.79-0.87
			c2.35-2.23,4.73-4.44,7.1-6.65c0.24-0.22,0.47-0.44,0.72-0.65c0.41-0.34,0.85-0.35,1.28-0.05c0.5,0.35,0.52,0.86,0.32,1.37
			c-0.1,0.25-0.29,0.47-0.45,0.7c-1.84,2.67-3.68,5.34-5.54,7.99c-0.41,0.59-0.65,1.14-0.64,1.9
			C46.12,44.83,44.43,46.53,42.15,46.57z"/>
		<path class="st9" d="M50.83,54.36c0.28,1.55,0.15,3.1,0.09,4.88c-5.85,0.05-11.61,0.02-17.47,0.02c-0.29-1.68-0.17-3.22-0.11-4.89
			C39.2,54.36,44.96,54.36,50.83,54.36z"/>
	</g>
	
		<radialGradient id="SVGID_4_" cx="-371.9596" cy="-238.8349" r="47.1962" gradientTransform="matrix(9.171787e-17 1.4979 -1.4979 9.171787e-17 -338.7204 575.9431)" gradientUnits="userSpaceOnUse">
		<stop  offset="0" style="stop-color:#FFFFFF;stop-opacity:0.3"/>
		<stop  offset="1" style="stop-color:#FFFFFF;stop-opacity:0"/>
	</radialGradient>
	<polygon class="st15" points="-51.67,89.49 -51.67,-51.9 89.72,-51.9 89.72,89.49 	"/>
</g>
<g>
	<defs>
		<ellipse id="SVGID_17_" cx="164.57" cy="42.98" rx="42.5" ry="42.98"/>
	</defs>
	<clipPath id="SVGID_6_">
		<use xlink:href="#SVGID_17_"  style="overflow:visible;"/>
	</clipPath>
	
		<radialGradient id="SVGID_7_" cx="-371.9596" cy="-320.3156" r="47.1962" gradientTransform="matrix(9.171787e-17 1.4979 -1.4979 9.171787e-17 -338.7204 575.9431)" gradientUnits="userSpaceOnUse">
		<stop  offset="0" style="stop-color:#FFFFFF;stop-opacity:0.3"/>
		<stop  offset="1" style="stop-color:#FFFFFF;stop-opacity:0"/>
	</radialGradient>
	<polygon class="st17" points="70.38,89.49 70.38,-51.9 211.76,-51.9 211.76,89.49 	"/>
</g>
</svg>
