<?xml version="1.0" encoding="utf-8"?>
<!-- Generator: Adobe Illustrator 24.1.1, SVG Export Plug-In . SVG Version: 6.00 Build 0)  -->
<svg version="1.1" id="Livello_1" xmlns="http://www.w3.org/2000/svg" xmlns:xlink="http://www.w3.org/1999/xlink" x="0px" y="0px"
	 viewBox="0 0 85.04 86" style="enable-background:new 0 0 85.04 86;" xml:space="preserve">
<style type="text/css">
	.st0{fill:#7985C1;}
	.st1{fill:#4153A0;}
	.st2{opacity:0.6;}
	.st3{fill:#293171;}
	.st4{opacity:0.7;fill:#9FA7D5;}
	.st5{opacity:0.7;}
	.st6{fill:#9FA7D5;}
	.st7{fill:#706F6F;}
	.st8{opacity:0.3;}
	.st9{fill:#FFFFFF;}
	.st10{opacity:0.5;}
	.st11{clip-path:url(#SVGID_2_);}
	.st12{opacity:0.5;fill:#9D9D9C;}
	.st13{clip-path:url(#SVGID_2_);fill:url(#SVGID_3_);}
	.st14{opacity:0.2;}
	.st15{clip-path:url(#SVGID_2_);fill:url(#SVGID_4_);}
	.st16{clip-path:url(#SVGID_6_);}
	.st17{clip-path:url(#SVGID_6_);fill:url(#SVGID_7_);}
	.st18{clip-path:url(#SVGID_6_);fill:url(#SVGID_8_);}
	.st19{clip-path:url(#SVGID_10_);}
	.st20{clip-path:url(#SVGID_10_);fill:url(#SVGID_11_);}
	.st21{clip-path:url(#SVGID_10_);fill:url(#SVGID_12_);}
	.st22{clip-path:url(#SVGID_14_);}
	.st23{clip-path:url(#SVGID_14_);fill:url(#SVGID_15_);}
	.st24{clip-path:url(#SVGID_14_);fill:url(#SVGID_16_);}
	.st25{clip-path:url(#SVGID_18_);}
	.st26{clip-path:url(#SVGID_18_);fill:url(#SVGID_19_);}
	.st27{clip-path:url(#SVGID_18_);fill:url(#SVGID_20_);}
	.st28{clip-path:url(#SVGID_22_);}
	.st29{clip-path:url(#SVGID_22_);fill:url(#SVGID_23_);}
	.st30{clip-path:url(#SVGID_22_);fill:url(#SVGID_24_);}
</style>
<g>
	<defs>
		<ellipse id="SVGID_5_" cx="42.52" cy="42.98" rx="42.5" ry="42.98"/>
	</defs>
	<clipPath id="SVGID_2_">
		<use xlink:href="#SVGID_5_"  style="overflow:visible;"/>
	</clipPath>
	<g class="st11">
		<circle class="st12" cx="42.52" cy="43.5" r="42.5"/>
		<circle class="st1" cx="42.52" cy="42.5" r="42.5"/>
	</g>
	
		<linearGradient id="SVGID_3_" gradientUnits="userSpaceOnUse" x1="-40.6336" y1="1.4534" x2="53.7574" y2="1.4534" gradientTransform="matrix(0.5804 0.5804 -0.8276 0.8276 59.5398 71.0084)">
		<stop  offset="0.32" style="stop-color:#293171;stop-opacity:0.3"/>
		<stop  offset="0.62" style="stop-color:#293171;stop-opacity:0.15"/>
		<stop  offset="1" style="stop-color:#293171;stop-opacity:0"/>
	</linearGradient>
	<path class="st13" d="M59.25,47.61c-0.17,0.46-0.4,0.89-0.69,1.28c3.76,0.62,4.18,5.55,4.04,12.94c0,0-2.54-0.02-5.76-0.02
		c-11.19,0,2.42-0.01-31.09-0.09l-3.47-0.04l54.49,54.49l25.52-25.52L59.25,47.61z"/>
	<g class="st11">
		<path class="st9" d="M62.4,61.58c-2.74,0-5.39,0-8.24,0c-0.05-9.42,0.01-18.82-0.03-28.29c-0.54-0.23-1.05-0.48-1.58-0.67
			c-3.15-1.15-6.31-2.27-9.45-3.44c-0.66-0.25-1.22-0.22-1.83,0.1c-0.91,0.47-1.86,0.88-2.9,1.36c0-1.88,0-3.63,0-5.51
			c0.97-0.46,2-0.94,3.03-1.42c2.64-1.21,5.27-2.44,7.92-3.62c0.38-0.17,0.9-0.26,1.28-0.13c3.79,1.25,7.57,2.56,11.35,3.86
			c0.14,0.05,0.27,0.14,0.45,0.23C62.4,36.52,62.4,48.98,62.4,61.58z M57.12,32.9c0,1.29,0,2.45,0,3.61c0.6,0,1.1,0,1.62,0
			c0-1.25,0-2.42,0-3.61C58.17,32.9,57.68,32.9,57.12,32.9z M57.11,39.58c0,1.3,0,2.46,0,3.63c0.6,0,1.1,0,1.62,0
			c0-1.26,0-2.42,0-3.63C58.16,39.58,57.68,39.58,57.11,39.58z M57.12,46.26c0,1.31,0,2.47,0,3.61c0.6,0,1.11,0,1.6,0
			c0-1.26,0-2.43,0-3.61C58.15,46.26,57.67,46.26,57.12,46.26z M57.09,26.26c0,1.25,0,2.38,0,3.55c0.6,0,1.13,0,1.67,0
			c0-1.23,0-2.36,0-3.55C58.19,26.26,57.69,26.26,57.09,26.26z M57.11,53.08c0,1.26,0,2.42,0,3.61c0.59,0,1.09,0,1.63,0
			c0-1.24,0-2.39,0-3.61C58.18,53.08,57.7,53.08,57.11,53.08z"/>
		<path class="st9" d="M41.21,31.35c0,10.18,0,20.14,0,30.2c-6.18,0-12.3,0-18.5,0c0-7.07,0-14.14,0-21.37
			C28.76,37.29,34.91,34.36,41.21,31.35z M36.92,51.22c-4.06,0.46-7.99,0.9-11.88,1.34c0,0.74,0,1.3,0,1.95
			c4.03-0.45,7.95-0.89,11.88-1.33C36.92,52.46,36.92,51.92,36.92,51.22z M25,44.4c4.04-1.32,7.98-2.6,11.92-3.88
			c0.02-0.43,0.04-0.74,0.04-1.05c0-0.23-0.03-0.46-0.05-0.89c-4.04,1.31-7.98,2.59-11.92,3.87C25,43.13,25,43.67,25,44.4z
			 M36.93,44.9c-4.07,0.91-8.01,1.78-11.98,2.67c0,0.54-0.01,0.93,0,1.32c0,0.15,0.05,0.3,0.11,0.59c4-0.89,7.96-1.77,11.87-2.64
			C36.93,46.13,36.93,45.62,36.93,44.9z M36.92,57.71c-4.03,0-7.95,0-11.91,0c-0.03,0.35-0.07,0.62-0.06,0.89
			c0,0.26,0.06,0.53,0.09,0.82c3.99,0,7.91,0,11.88,0C36.92,58.84,36.92,58.34,36.92,57.71z"/>
		<path class="st9" d="M43.15,61.55c0-10.13,0-20.14,0-30.37c3.14,1.15,6.18,2.26,9.2,3.37c0,9.04,0,17.98,0,27.01
			C49.28,61.55,46.27,61.55,43.15,61.55z"/>
	</g>
	
		<radialGradient id="SVGID_4_" cx="-127.8651" cy="-75.8734" r="47.1962" gradientTransform="matrix(9.171787e-17 1.4979 -1.4979 9.171787e-17 -94.6259 210.3221)" gradientUnits="userSpaceOnUse">
		<stop  offset="0" style="stop-color:#FFFFFF;stop-opacity:0.3"/>
		<stop  offset="1" style="stop-color:#FFFFFF;stop-opacity:0"/>
	</radialGradient>
	<polygon class="st15" points="-51.67,89.49 -51.67,-51.9 89.72,-51.9 89.72,89.49 	"/>
</g>
<g>
	<defs>
		<ellipse id="SVGID_9_" cx="164.57" cy="42.98" rx="42.5" ry="42.98"/>
	</defs>
	<clipPath id="SVGID_6_">
		<use xlink:href="#SVGID_9_"  style="overflow:visible;"/>
	</clipPath>
	
		<radialGradient id="SVGID_7_" cx="-127.8651" cy="-157.3541" r="47.1962" gradientTransform="matrix(9.171787e-17 1.4979 -1.4979 9.171787e-17 -94.6259 210.3221)" gradientUnits="userSpaceOnUse">
		<stop  offset="0" style="stop-color:#FFFFFF;stop-opacity:0.3"/>
		<stop  offset="1" style="stop-color:#FFFFFF;stop-opacity:0"/>
	</radialGradient>
	<polygon class="st17" points="70.38,89.49 70.38,-51.9 211.76,-51.9 211.76,89.49 	"/>
</g>
</svg>
