<?xml version="1.0" encoding="utf-8"?>
<!-- Generator: Adobe Illustrator 24.1.1, SVG Export Plug-In . SVG Version: 6.00 Build 0)  -->
<svg version="1.1" id="Livello_1" xmlns="http://www.w3.org/2000/svg" xmlns:xlink="http://www.w3.org/1999/xlink" x="0px" y="0px"
	 viewBox="0 0 85.04 86" style="enable-background:new 0 0 85.04 86;" xml:space="preserve">
<style type="text/css">
	.st0{fill:#7985C1;}
	.st1{fill:#4153A0;}
	.st2{opacity:0.6;}
	.st3{fill:#293171;}
	.st4{opacity:0.7;fill:#9FA7D5;}
	.st5{opacity:0.7;}
	.st6{fill:#9FA7D5;}
	.st7{fill:#706F6F;}
	.st8{opacity:0.3;}
	.st9{fill:#FFFFFF;}
	.st10{opacity:0.5;}
	.st11{clip-path:url(#SVGID_2_);}
	.st12{opacity:0.5;fill:#9D9D9C;}
	.st13{clip-path:url(#SVGID_2_);fill:url(#SVGID_3_);}
	.st14{opacity:0.2;}
	.st15{clip-path:url(#SVGID_2_);fill:url(#SVGID_4_);}
	.st16{clip-path:url(#SVGID_6_);}
	.st17{clip-path:url(#SVGID_6_);fill:url(#SVGID_7_);}
	.st18{clip-path:url(#SVGID_6_);fill:url(#SVGID_8_);}
	.st19{clip-path:url(#SVGID_10_);}
	.st20{clip-path:url(#SVGID_10_);fill:url(#SVGID_11_);}
	.st21{clip-path:url(#SVGID_10_);fill:url(#SVGID_12_);}
	.st22{clip-path:url(#SVGID_14_);}
	.st23{clip-path:url(#SVGID_14_);fill:url(#SVGID_15_);}
	.st24{clip-path:url(#SVGID_14_);fill:url(#SVGID_16_);}
	.st25{clip-path:url(#SVGID_18_);}
	.st26{clip-path:url(#SVGID_18_);fill:url(#SVGID_19_);}
	.st27{clip-path:url(#SVGID_18_);fill:url(#SVGID_20_);}
	.st28{clip-path:url(#SVGID_22_);}
	.st29{clip-path:url(#SVGID_22_);fill:url(#SVGID_23_);}
	.st30{clip-path:url(#SVGID_22_);fill:url(#SVGID_24_);}
</style>
<g>
	<defs>
		<ellipse id="SVGID_9_" cx="42.52" cy="42.98" rx="42.5" ry="42.98"/>
	</defs>
	<clipPath id="SVGID_2_">
		<use xlink:href="#SVGID_9_"  style="overflow:visible;"/>
	</clipPath>
	<g class="st11">
		<circle class="st12" cx="42.52" cy="43.5" r="42.5"/>
		<circle class="st1" cx="42.52" cy="42.5" r="42.5"/>
	</g>
	
		<linearGradient id="SVGID_3_" gradientUnits="userSpaceOnUse" x1="-57.5473" y1="-78.8372" x2="36.8436" y2="-78.8372" gradientTransform="matrix(0.5804 0.5804 -0.8276 0.8276 8.3335 141.8494)">
		<stop  offset="0.32" style="stop-color:#293171;stop-opacity:0.3"/>
		<stop  offset="0.62" style="stop-color:#293171;stop-opacity:0.15"/>
		<stop  offset="1" style="stop-color:#293171;stop-opacity:0"/>
	</linearGradient>
	<path class="st13" d="M64.03,26.01c-0.71,1.87,1.05,17.39-1.54,17.39c-0.36,0-8.89,7.5-9.22,7.45c-0.53,0.17-1.12,0.26-1.77,0.26
		c-3.5,0-9.16-4.17-12.28-2.7c-2.91,1.37-4.49,5.33-7.34,6.82c-0.95,0.5-0.68,2.52-1.56,2.5c-1.59,0.93-3.19,1.85-4.78,2.8
		c-1.21,0.72-2.39,0.92-3.47,0.77c-0.01,0.04-2.01,2.67-2.02,2.71l54.4,54.49l40.93-40.93L64.03,26.01z"/>
	<g class="st11">
		<path class="st9" d="M34.67,26.85c4.06-7.26,13.02-10.76,21.05-7.52c6.43,2.59,10.09,7.47,10.82,14.29
			c0.55,5.18-1.13,9.81-4.84,13.56c-3.56,3.59-7.88,5.29-12.95,5.09c-3.27-0.13-6.23-1.19-8.91-3.02c-0.51-0.35-0.8-0.32-1.22,0.14
			c-0.89,0.97-1.81,1.93-2.8,2.79c-0.64,0.56-0.77,1.05-0.44,1.83c0.41,0.98,0.38,1.96-0.45,2.78c-2.92,2.92-5.85,5.83-8.75,8.78
			c-0.81,0.82-1.76,1-2.76,0.65c-2.28-0.8-3.93-2.29-4.77-4.61c-0.44-1.22-0.28-2.25,0.7-3.21c2.71-2.64,5.43-5.29,8.04-8.03
			c1.14-1.2,2.3-1.52,3.76-0.86c0.48,0.22,0.78,0.1,1.13-0.25c1.02-1.05,2.05-2.09,3.11-3.1c0.43-0.41,0.49-0.7,0.13-1.23
			c-1.98-2.89-3.05-6.08-3.03-9.6C32.47,32.34,33.27,29.37,34.67,26.85z M62.61,34.94c-0.01-6.89-6.02-12.89-13.02-12.81
			c-7.39,0.09-13.07,5.73-13.1,13.24c-0.02,7.01,5.91,12.99,13.05,12.89C56.36,48.41,62.63,42.78,62.61,34.94z"/>
	</g>
	
		<radialGradient id="SVGID_4_" cx="-249.9124" cy="-157.3541" r="47.1962" gradientTransform="matrix(9.171787e-17 1.4979 -1.4979 9.171787e-17 -216.6731 393.1326)" gradientUnits="userSpaceOnUse">
		<stop  offset="0" style="stop-color:#FFFFFF;stop-opacity:0.3"/>
		<stop  offset="1" style="stop-color:#FFFFFF;stop-opacity:0"/>
	</radialGradient>
	<polygon class="st15" points="-51.67,89.49 -51.67,-51.9 89.72,-51.9 89.72,89.49 	"/>
</g>
<g>
	<defs>
		<ellipse id="SVGID_13_" cx="164.57" cy="42.98" rx="42.5" ry="42.98"/>
	</defs>
	<clipPath id="SVGID_6_">
		<use xlink:href="#SVGID_13_"  style="overflow:visible;"/>
	</clipPath>
	
		<radialGradient id="SVGID_7_" cx="-249.9124" cy="-238.8349" r="47.1962" gradientTransform="matrix(9.171787e-17 1.4979 -1.4979 9.171787e-17 -216.6731 393.1326)" gradientUnits="userSpaceOnUse">
		<stop  offset="0" style="stop-color:#FFFFFF;stop-opacity:0.3"/>
		<stop  offset="1" style="stop-color:#FFFFFF;stop-opacity:0"/>
	</radialGradient>
	<polygon class="st17" points="70.38,89.49 70.38,-51.9 211.76,-51.9 211.76,89.49 	"/>
</g>
</svg>
