<?xml version="1.0" encoding="utf-8"?>
<!-- Generator: Adobe Illustrator 24.1.1, SVG Export Plug-In . SVG Version: 6.00 Build 0)  -->
<svg version="1.1" id="Livello_1" xmlns="http://www.w3.org/2000/svg" xmlns:xlink="http://www.w3.org/1999/xlink" x="0px" y="0px"
	 viewBox="0 0 170.08 170.08" style="enable-background:new 0 0 170.08 170.08;" xml:space="preserve">
<style type="text/css">
	.st0{fill:#7985C1;}
	.st1{fill:#4153A0;}
	.st2{opacity:0.6;}
	.st3{fill:#293171;}
	.st4{opacity:0.7;fill:#9FA7D5;}
	.st5{opacity:0.7;}
	.st6{fill:#9FA7D5;}
	.st7{fill:#706F6F;}
	.st8{opacity:0.3;}
	.st9{fill:#FFFFFF;}
	.st10{font-family:'Montserrat-Medium';}
	.st11{font-size:14.7904px;}
	.st12{font-family:'Montserrat-SemiBold';}
	.st13{opacity:0.5;}
	.st14{clip-path:url(#SVGID_2_);}
	.st15{opacity:0.5;fill:#9D9D9C;}
	.st16{clip-path:url(#SVGID_2_);fill:url(#SVGID_3_);}
	.st17{opacity:0.2;}
	.st18{clip-path:url(#SVGID_2_);fill:url(#SVGID_4_);}
	.st19{clip-path:url(#SVGID_6_);}
	.st20{clip-path:url(#SVGID_6_);fill:url(#SVGID_7_);}
	.st21{clip-path:url(#SVGID_6_);fill:url(#SVGID_8_);}
	.st22{clip-path:url(#SVGID_10_);}
	.st23{clip-path:url(#SVGID_10_);fill:url(#SVGID_11_);}
	.st24{clip-path:url(#SVGID_10_);fill:url(#SVGID_12_);}
	.st25{clip-path:url(#SVGID_14_);}
	.st26{clip-path:url(#SVGID_14_);fill:url(#SVGID_15_);}
	.st27{clip-path:url(#SVGID_14_);fill:url(#SVGID_16_);}
	.st28{clip-path:url(#SVGID_18_);}
	.st29{clip-path:url(#SVGID_18_);fill:url(#SVGID_19_);}
	.st30{clip-path:url(#SVGID_18_);fill:url(#SVGID_20_);}
	.st31{clip-path:url(#SVGID_22_);}
	.st32{clip-path:url(#SVGID_22_);fill:url(#SVGID_23_);}
	.st33{clip-path:url(#SVGID_22_);fill:url(#SVGID_24_);}
</style>
<rect x="-8.8" y="-8.5" class="st1" width="187.38" height="187.38"/>
<g>
	<g>
		<g>
			<path class="st9" d="M55.16,50.42c1.75-2.19,4.39-2.1,6.69-2.15c6.39-0.14,12.78,0.13,19.17,0.21c4.51,0.05,9.03,0.06,13.54,0.09
				c2.71,0.02,3.58,0.59,4.06,3.22c0.38,2.12,0.56,4.29,0.58,6.44c0.07,6.68,0.03,13.35,0.01,20.03c0,0.91-0.18,1.82-0.3,3.05
				c-6.9,0.25-13.62,0.49-20.31,0.74c-1.25,2.39-2.46,4.49-5.12,5.18c-3.24,0.85-6.17-0.05-7.71-3.02c-1.1-2.13-2.65-2.66-4.75-2.65
				c-2.82,0.01-5.64-0.05-8.45-0.09c-0.16,0-0.32-0.16-0.7-0.36c-0.06-0.68-0.21-1.5-0.21-2.31c-0.01-7.34-0.05-14.67,0.04-22.01
				c0.03-2.66,0.41-5.31,3.5-6.39c-0.19,0.38-0.38,0.76-0.57,1.14c-0.04,0.06-0.12,0.13-0.11,0.19c0.01,0.13,0.07,0.26,0.11,0.39
				c-0.23,1.72,0.31,3.62-1.13,5.08c-0.05,0.06-0.15,0.12-0.14,0.17c0.02,0.13,0.08,0.25,0.13,0.37c0.19,0.19,0.39,0.39,0.58,0.58
				c0,0.19,0,0.39,0,0.58c-0.38,0.18-0.76,0.37-1.14,0.55c-0.04,0.06-0.13,0.12-0.13,0.17c0.02,0.12,0.07,0.24,0.12,0.36
				c0.19,0.19,0.38,0.38,0.57,0.57c0.19,0.19,0.38,0.39,0.57,0.58c0.19,0.19,0.37,0.38,0.56,0.58c0,0.19,0,0.38,0.01,0.57
				c-0.39,0.01-0.77,0.01-1.16,0.02l-0.07-0.12l0.1,0.09c0.19,0.37,0.37,0.75,0.56,1.12c0,0.19,0,0.39,0,0.58
				c-0.21,0.06-0.42,0.13-0.84,0.25c0.41,0.14,0.63,0.22,0.84,0.29c0,0.2,0,0.4,0,0.59c-0.22,0.07-0.44,0.14-0.84,0.27
				c0.4,0.13,0.62,0.2,0.84,0.27c0,0.2,0,0.39,0,0.59c-0.18,0.13-0.35,0.26-0.53,0.39c0.17,0.05,0.34,0.1,0.52,0.15
				c0.19,0.2,0.38,0.39,0.57,0.59c0,0.19,0,0.38,0,0.57c-0.38,0-0.76,0.01-1.14,0.01l0.03-0.03c0,0.2,0,0.39-0.01,0.59
				c-0.16,0.12-0.32,0.25-0.48,0.37c0.16,0.05,0.32,0.11,0.48,0.16c0,0.19,0,0.38,0,0.57c-0.07,0.06-0.2,0.13-0.19,0.17
				c0.04,0.14,0.12,0.27,0.19,0.4c0.02,0.19,0.02,0.37,0,0.56c-0.04,0.06-0.11,0.12-0.1,0.18c0.01,0.12,0.06,0.24,0.1,0.36
				c0.19,0.19,0.39,0.39,0.58,0.58c-0.14,0.57,1.64,1.18-0.03,1.72c-0.19-0.19-0.38-0.39-0.57-0.58c-0.19-0.19-0.38-0.37-0.58-0.56
				l0.03-0.03c0.19,0.19,0.39,0.37,0.58,0.56c0,0.2,0,0.41-0.01,0.61c-0.19,0.37-0.38,0.74-0.56,1.1l-0.08,0.1l0.05-0.13
				c0.39,0.01,0.78,0.01,1.17,0.02c-0.19,0.57-0.38,1.14-0.56,1.71c-0.19,0.19-0.38,0.38-0.57,0.56c-0.04,0.06-0.11,0.12-0.11,0.17
				c0.02,0.13,0.07,0.25,0.11,0.37c0,0.19,0,0.39,0,0.58c0,0.18-0.01,0.36-0.01,0.55c0.19,0.19,0.39,0.39,0.58,0.58
				c0,0.19,0,0.39,0,0.58c-0.15,0.12-0.3,0.24-0.45,0.36c0.15,0.06,0.29,0.12,0.44,0.18c0,0,0.08,0.1,0.08,0.1l-0.11-0.07
				c0-0.2,0-0.4,0.01-0.59c0.38,0,0.76,0,1.15,0c0.2,0.19,0.39,0.39,0.59,0.58c0.93-0.19,1.86-0.39,2.8-0.58c0.19,0,0.38,0,0.56,0
				c0.38,0,0.75,0,1.13,0c0.19,0,0.37,0,0.56,0c0.38,0,0.76,0,1.13,0c0.19,0,0.38,0,0.56,0c0.19-0.36,0.38-0.73,0.56-1.09
				c-0.19-0.19-0.39-0.39-0.58-0.58c-0.19-0.19-0.37-0.38-0.56-0.57c0.19-0.38,0.37-0.76,0.56-1.14c0.39,0,0.77-0.01,1.16-0.01
				c0,0.2,0,0.39,0.01,0.59c0,0-0.02-0.02-0.02-0.02c0.19-0.19,0.38-0.37,0.57-0.56c0.18-0.56,0.36-1.13,0.54-1.69
				c0.42-0.18,0.86-0.34,1.26-0.56c4.41-2.39,8.96-2.62,12.67,1.58c0.66,0.74,1.63,1.21,2.46,1.8c0,0.19,0,0.39,0,0.58
				c-0.16,0.05-0.33,0.11-0.49,0.16c0.17,0.13,0.33,0.25,0.5,0.38c0,0.2,0,0.4,0,0.59c-0.03,0.05-0.07,0.1-0.1,0.15
				c0.02-0.06,0.04-0.13,0.06-0.19c0.19-0.19,0.38-0.37,0.57-0.56c0.38-0.19,0.77-0.37,1.15-0.56c0.75,0.19,1.5,0.37,2.25,0.56
				c0.19,0.19,0.38,0.38,0.57,0.58c0,0.19,0,0.39,0,0.58c-0.75,0-1.51,0-2.26,0c-0.18,0-0.37,0-0.55,0
				c-0.19,0.19-0.38,0.37-0.57,0.56l-0.03-0.03c0.19-0.19,0.38-0.37,0.57-0.56c0.2,0,0.4,0,0.61,0c0.42,1.4,1.32,1,2.22,0.59
				c0.56,0,1.13-0.01,1.69-0.01c0.19,0,0.37,0,0.56,0c0.19,0,0.38,0,0.57,0c0.19,0,0.38,0,0.56,0c0.2,0,0.39,0,0.59,0
				c1.35,1.14,2.23-0.48,3.37-0.56c0.01,0.2,0.01,0.39,0.02,0.59l-0.03-0.03l0.28-0.02L93,80.31c0.19,0,0.38,0,0.57,0
				c0.37,0,0.75,0,1.12,0c0.19,0,0.38,0,0.57,0c0.19-0.19,0.37-0.38,0.56-0.57c0.2,0,0.39,0,0.59,0.01
				c0.41,0.08,1.01,0.36,1.19,0.19c0.97-0.89,0.54-3.66-0.65-4.72l0.03,0.03c1.99-1.9,1-4.1,0.84-6.52
				c-0.67,0.41-1.04,0.64-1.41,0.87c-0.19,0.19-0.38,0.39-0.57,0.58c-0.32-0.19-0.65-0.39-1.02-0.62c0.43-0.47,0.71-0.79,1-1.1
				c0.19-0.19,0.38-0.39,0.57-0.58c0.38-0.19,0.76-0.37,1.15-0.56c0.8-0.9,0.59-1.44-0.58-1.66c-0.2-0.19-0.39-0.39-0.59-0.58
				c0-0.2,0.01-0.4,0.01-0.59c0.39,0,0.77,0,1.16-0.01l0.09,0.15l-0.12-0.12c0.03-0.41,0.17-0.84,0.07-1.22
				c-0.09-0.37-0.41-0.69-0.63-1.03c0-0.2,0-0.39,0-0.59c0.23-0.07,0.45-0.13,0.88-0.26c-0.43-0.13-0.66-0.2-0.89-0.27
				c0-0.21,0-0.41,0-0.62c0.16-0.11,0.33-0.22,0.49-0.34c-0.16-0.06-0.32-0.12-0.47-0.18c-0.2-0.2-0.39-0.39-0.59-0.59
				c0.19-0.38,0.38-0.76,0.57-1.14c0.17-0.06,0.33-0.11,0.5-0.17c-0.17-0.12-0.33-0.25-0.5-0.37c0.22-0.55,1.59-0.71,0.57-1.68
				c0.06-0.27,0.11-0.54,0.18-0.86c-0.24-0.09-0.49-0.18-0.74-0.28c0-0.2,0-0.4,0-0.6c0.17-0.05,0.34-0.11,0.5-0.16
				c-0.17-0.12-0.34-0.25-0.51-0.37c0-0.19,0-0.39,0-0.58c0.19-0.19,0.39-0.38,0.58-0.57c0.79-0.89-0.01-0.94-0.59-1.1
				c0.24-0.58,0.39-1.11-0.55-1.12c-0.19-0.2-0.38-0.39-0.57-0.59l0.04-0.03c0,0.2,0,0.4-0.01,0.6c-0.19,0.19-0.38,0.39-0.58,0.58
				c-0.38,0-0.77,0-1.15,0c0-0.2,0-0.4,0-0.61c0-0.18,0-0.36,0-0.54c-1.18-0.16-2.36-0.45-3.55-0.46
				c-8.41-0.1-16.82-0.06-25.22-0.24C61.85,49.06,58.46,49.21,55.16,50.42z M76.61,82c0.05-0.06,0.15-0.12,0.14-0.17
				c-0.02-0.13-0.09-0.25-0.14-0.37c0-0.19,0-0.39,0-0.58c0.05-0.06,0.16-0.12,0.15-0.17c-0.03-0.13-0.1-0.25-0.15-0.38
				c0-0.19,0-0.39,0.01-0.58c0.06-0.06,0.19-0.13,0.18-0.16c-0.04-0.13-0.12-0.26-0.19-0.38c-0.19-0.19-0.38-0.38-0.57-0.57
				c0-0.19,0-0.39,0-0.58c0.08-0.05,0.22-0.13,0.22-0.15c-0.06-0.14-0.14-0.27-0.22-0.4c-0.38-0.19-0.75-0.38-1.13-0.56
				c0-0.19,0-0.38,0-0.58c0-0.19,0-0.37,0-0.56c-0.38-0.01-0.76-0.02-1.14-0.03c-0.37,0.02-0.75,0.03-1.12,0.05c0-0.2,0-0.4,0-0.6
				l0.11-0.06c0,0-0.07,0.09-0.07,0.09c-0.2,0-0.4,0-0.6,0c-0.18,0-0.36,0-0.54,0c-0.56,0-1.12,0-1.68,0c-0.2,0-0.4,0-0.6,0
				c0,0,0.04-0.04,0.04-0.04c0,0.2,0,0.39,0,0.59c-0.19,0.19-0.39,0.39-0.58,0.58c-0.83,0.37-1.66,0.73-2.37,1.05
				c-1.25,5.75,1.21,8.69,6.9,8.5l0.12,0.14l-0.16-0.1c0.38-0.2,0.77-0.4,1.15-0.6c0.19,0,0.38,0,0.57,0
				c0.96-0.69,2.23-1.19,1.67-2.79C76.61,82.4,76.61,82.2,76.61,82z M76.63,75.78l0.1,0.12l-0.13-0.09
				c-0.19-0.19-0.38-0.37-0.57-0.56c-0.19-0.19-0.37-0.38-0.56-0.57c-0.38-0.18-0.76-0.36-1.14-0.54c-0.27-0.15-0.54-0.31-0.81-0.46
				c-0.04,0.09-0.07,0.19-0.11,0.28c0.31,0.05,0.63,0.1,0.94,0.15c0.38,0.18,0.76,0.36,1.14,0.55c0.19,0.19,0.37,0.38,0.56,0.57
				C76.25,75.41,76.44,75.6,76.63,75.78z M70.41,73.55c-0.75,0.19-1.5,0.38-2.25,0.57c-0.56,0.38-1.12,0.76-1.68,1.14
				c-0.58,0.54-1.16,1.08-1.74,1.61c0.15,0.12,0.31,0.25,0.46,0.37c0.42-0.67,0.83-1.34,1.25-2.02c0.56-0.38,1.12-0.76,1.68-1.14
				c0.75-0.19,1.5-0.38,2.25-0.56c0.31-0.03,0.61-0.06,0.92-0.09c-0.03-0.09-0.06-0.18-0.09-0.27
				C70.95,73.29,70.68,73.42,70.41,73.55z"/>
			<path class="st9" d="M117.51,54.72c2.76,3.13,3.83,7.02,4.93,10.9c0.4,1.41,0.4,2.96,1.78,3.99c0.34,0.25,0.38,1.01,0.39,1.55
				c0.05,2.34,0.09,4.69,0.05,7.03c-0.04,2.02-1.03,3.07-3.03,3.31c-0.74,0.09-1.5,0.03-2.25,0.08c-0.65,0.04-1.29,0.15-2.04,0.23
				c-0.39,0.74-0.73,1.5-1.18,2.19c-1.57,2.44-3.81,3.46-6.71,3.23c-2.58-0.21-4.54-1.43-5.52-3.73c-0.76-1.79-1.67-2.9-3.89-2.5
				c-0.15-0.92-0.35-1.63-0.35-2.34c-0.04-6.94-0.07-13.88-0.02-20.82c0.01-0.97,0.44-1.93,0.68-2.9l-0.04-0.04
				c0.2,0.19,0.4,0.38,0.6,0.57c0.19,0.19,0.39,0.39,0.58,0.58c0,0.19,0,0.38,0,0.57c-0.16,0.09-0.32,0.18-0.48,0.27
				c0.17,0.1,0.32,0.19,0.48,0.28c-0.2,0.95-0.4,1.9-0.59,2.85l0.03-0.03c0,0.19,0,0.38-0.01,0.57c-0.07,0.06-0.21,0.13-0.2,0.17
				c0.04,0.14,0.13,0.26,0.2,0.39c0,0.75,0,1.51,0,2.26c-0.05,0.06-0.14,0.13-0.13,0.19c0.02,0.13,0.08,0.26,0.13,0.39
				c-0.01,0.18-0.01,0.37,0,0.55c-0.06,0.06-0.17,0.13-0.16,0.17c0.03,0.14,0.11,0.27,0.17,0.4c0,0.56,0,1.13,0,1.69
				c-0.04,0.06-0.11,0.12-0.11,0.17c0.01,0.13,0.06,0.25,0.1,0.37c0.19,0.2,0.39,0.39,0.58,0.59c-0.01,0.19-0.01,0.38,0,0.56
				c-0.19,0.19-0.38,0.38-0.57,0.57c-0.06,0.06-0.18,0.13-0.17,0.16c0.04,0.14,0.11,0.27,0.18,0.4c0,0.19,0,0.38,0,0.57l-0.12,0.11
				l0.08-0.14c2.14,0.93,0.55,1.89,0.03,2.84c0,0.18-0.01,0.37-0.01,0.55c0.19,0.19,0.39,0.39,0.58,0.58c0,0.75,0,1.5,0,2.25
				c-0.19,0.19-0.38,0.38-0.57,0.57l-0.02-0.02c0.2,0,0.39,0,0.59,0c0,0.76,0,1.52,0,2.29l-0.13,0.09l0.1-0.12
				c0.19-0.75,0.38-1.5,0.57-2.25c0.39-1.29,0.92-2.57,1.13-3.89c0.19-1.24,0.04-2.53,0.04-4.09c1.48,0,2.5,0,3.52,0
				c3.48,0.01,6.96,0.11,10.43-0.01c1-0.03,1.98-0.69,2.98-1.06l-0.05,0.05c1.29,1.53,0.7,3.37,0.84,5.09
				c0.21,2.5,0.3,5.02,0.43,7.53c0.3-0.04,0.6-0.08,0.89-0.12c1.43-9.03-0.35-17.45-5.21-25.3
				C117.19,54.98,117.35,54.85,117.51,54.72z M105.98,84.83c0.19,0,0.38,0,0.57-0.01c2,1.18,4.14,1.37,6.2,1
				c1-1.08,1.92-1.99,2.7-2.99c0.23-0.3,0.09-0.9,0.12-1.36c0-0.2,0-0.4-0.01-0.6c0.04-0.06,0.12-0.12,0.12-0.17
				c-0.02-0.13-0.07-0.25-0.12-0.37c0-0.56,0-1.13,0-1.69c-0.18-0.37-0.37-0.74-0.55-1.11c-0.18,0-0.37,0-0.55-0.01
				c-0.38,0-0.76,0-1.15-0.01c0-0.19,0.01-0.38,0.01-0.57c0.18-0.19,0.37-0.39,0.55-0.58c0.04-0.06,0.08-0.11,0.12-0.17
				c-0.03,0.07-0.07,0.13-0.1,0.2c-0.19,0.18-0.39,0.37-0.58,0.55c-0.38-0.01-0.76-0.01-1.14-0.02l0.03,0.03
				c-0.01-0.2-0.03-0.39-0.04-0.58c0.19-0.19,0.38-0.38,0.57-0.56c0.05-0.06,0.09-0.13,0.14-0.19c-0.04,0.07-0.08,0.14-0.12,0.21
				c-0.2,0-0.39,0.01-0.59,0.01c-0.37-0.19-0.74-0.38-1.12-0.57c-0.19-0.19-0.38-0.38-0.58-0.58c-0.36,0-0.73,0-1.09,0
				c-0.19,0.19-0.38,0.38-0.57,0.57c-0.2,0-0.4,0-0.6,0c0,0,0.04-0.04,0.04-0.04c0,0.2,0,0.4,0.01,0.6
				c-0.2,0.19-0.39,0.38-0.59,0.57c-3.62,2.13-3.62,2.13-2.36,6.23c0.05,0.18,0.08,0.36,0.12,0.54l-0.03-0.03
				c0.2,0.38,0.39,0.77,0.59,1.15C105.99,84.45,105.99,84.64,105.98,84.83z M104.85,75.79c2.61-2.53,5.6-2.98,9-1.69
				c-1.28-0.63-2.58-1.1-3.89-1.14c-2.18-0.06-4.38,0.14-5.1,2.84l-0.08,0.06L104.85,75.79z M117.29,75.23
				c-0.05,0.06-0.15,0.13-0.14,0.18c0.02,0.14,0.09,0.27,0.15,0.4c0.74,1.53,1.49,3.06,2.23,4.58c0.36-3.59,0.81-7.08,0.21-10.59
				c-5.17,0-10.06,0-15.64,0c1.02,0.64,1.44,0.91,1.57,0.99c-0.29,1-0.55,1.88-0.81,2.75l-0.09,0.07l0.08-0.08
				C109.88,70.34,114.03,70.9,117.29,75.23z M123.66,73.7c0.1,0.02,0.2,0.05,0.3,0.07c0-0.95,0-1.9,0-2.86c-0.1,0-0.2,0-0.3,0
				C123.66,71.84,123.66,72.77,123.66,73.7z M123.89,76.63c-0.06,0-0.12,0-0.18,0.01c0,0.7,0,1.4,0,2.11
				c0.06-0.01,0.12-0.01,0.18-0.02C123.89,78.02,123.89,77.32,123.89,76.63z"/>
			<path class="st9" d="M100.76,53.68c0.6-0.55,1.12-1.38,1.83-1.59c3.99-1.18,8.06-1.67,12,0.14c1.12,0.52,1.96,1.65,2.92,2.5
				c-0.16,0.13-0.32,0.26-0.48,0.39c-4.26-3.74-11.01-4.25-15.98-1.2C100.96,53.83,100.86,53.75,100.76,53.68z"/>
			<ellipse class="st9" cx="52.35" cy="86.25" rx="9.83" ry="0.22"/>
			<path class="st9" d="M97.51,85.39c-3.76,0-7.52,0-11.28,0.01l0.02,0.03c3.74-1.01,7.48-1.01,11.23,0L97.51,85.39z"/>
			<path class="st9" d="M98.64,83.7c-2.55-0.14-5.09-0.27-7.64-0.41c0.02-0.24,0.04-0.48,0.06-0.72c2.52,0.39,5.03,0.78,7.55,1.16
				L98.64,83.7z"/>
			<path class="st9" d="M57.43,84.85c1.68,0.19,3.37,0.39,5.05,0.58l0.03-0.03c-1.68-0.2-3.36-0.39-5.05-0.59L57.43,84.85z"/>
			<path class="st9" d="M52.92,84.28c1.5,0.19,3.01,0.38,4.51,0.57l0.03-0.04c-1.5-0.19-3.01-0.38-4.51-0.57L52.92,84.28z"/>
			<path class="st9" d="M86.23,85.4c-1.15,0.24-2.31,0.48-3.46,0.72c-0.03-0.23-0.06-0.46-0.09-0.69c1.19,0,2.38,0,3.57,0
				L86.23,85.4z"/>
			<path class="st9" d="M52.95,84.24c-1.03,0-2.06,0-3.09,0c0.03-0.22,0.05-0.44,0.08-0.66c0.99,0.23,1.99,0.46,2.98,0.69
				L52.95,84.24z"/>
			<path class="st9" d="M102.02,84.27c-1.13-0.19-2.26-0.38-3.38-0.57l-0.03,0.04c1.13,0.19,2.26,0.38,3.39,0.56L102.02,84.27z"/>
			<path class="st9" d="M62.48,85.43c0.51,0,1.02,0,1.53,0c-0.02,0.16-0.04,0.31-0.06,0.47c-0.48-0.17-0.96-0.34-1.44-0.51
				L62.48,85.43z"/>
			<path class="st9" d="M97.48,85.43c0.54,0,1.08,0,1.62,0c-0.02,0.15-0.04,0.3-0.06,0.45c-0.51-0.16-1.03-0.32-1.54-0.49
				L97.48,85.43z"/>
			<path class="st9" d="M102,84.3c0.36,0.02,0.72,0.04,1.08,0.05c-0.03,0.11-0.05,0.21-0.08,0.32c-0.33-0.13-0.65-0.27-0.98-0.4
				L102,84.3z"/>
			<path class="st9" d="M100.35,54.93c0.14-0.42,0.28-0.84,0.41-1.26c0.1,0.08,0.19,0.16,0.29,0.24c-0.04,0.34-0.09,0.68-0.13,1.02
				c-0.21-0.01-0.41-0.02-0.62-0.03L100.35,54.93z"/>
			<path class="st9" d="M89.04,80.34c-0.19-0.2-0.37-0.39-0.56-0.59c0,0,0.03,0.02,0.03,0.02c-0.2-0.2-0.4-0.41-0.61-0.61l0.03,0.05
				c0-0.2,0-0.4,0-0.6l-0.02,0.03c0.57-0.19,1.13-0.38,1.7-0.57l-0.03-0.02c0.2,0.2,0.4,0.41,0.6,0.61c0,0-0.03-0.05-0.03-0.05
				c0,0.2,0,0.4,0,0.6l0.03-0.05c-0.04,0.07-0.13,0.14-0.12,0.2c0.02,0.14,0.08,0.29,0.12,0.43l-0.03-0.02
				C89.79,79.96,89.41,80.15,89.04,80.34z"/>
			<path class="st9" d="M96.97,60.57c-0.04,0.12-0.09,0.25-0.11,0.37c-0.01,0.05,0.07,0.12,0.11,0.18c0,0.19,0,0.39,0,0.58
				c-0.19,0.19-0.38,0.38-0.57,0.57c-1.72-0.95-0.66-1.91-0.01-2.87c0.19,0.19,0.38,0.39,0.58,0.58
				C96.97,60.18,96.97,60.38,96.97,60.57z"/>
			<path class="st9" d="M54.05,60.58c-0.19,0-0.39,0-0.58,0c-0.19-0.19-0.38-0.38-0.57-0.57c0-0.2,0-0.39,0-0.59
				c0.38-0.19,0.76-0.38,1.14-0.57C55.62,59.41,54.57,60,54.05,60.58z"/>
			<path class="st9" d="M96.4,65.07c0.19,0.19,0.39,0.38,0.58,0.57c-0.22,0.35-0.44,0.7-0.66,1.05c-0.36,0.02-0.71,0.04-1.07,0.07
				l0.03,0.03c0.18-0.77,0.36-1.53,0.55-2.3C96.02,64.68,96.21,64.87,96.4,65.07z"/>
			<path class="st9" d="M53.47,78.08c-0.19-0.19-0.38-0.38-0.57-0.57c0-0.2,0-0.39,0-0.59c0.19-0.19,0.38-0.38,0.57-0.58
				c0.38,0.2,0.75,0.39,1.13,0.59l0.02-0.03c-0.04,0.07-0.12,0.14-0.12,0.2c0.02,0.14,0.08,0.28,0.12,0.41l-0.03-0.02
				C54.22,77.7,53.84,77.89,53.47,78.08z"/>
			<path class="st9" d="M94.14,50.41c-0.19,0.19-0.38,0.38-0.57,0.58c-0.27-0.15-0.55-0.31-1.25-0.71c0.91-0.23,1.37-0.35,1.82-0.46
				C94.14,50.01,94.14,50.21,94.14,50.41z"/>
			<path class="st9" d="M55.17,80.34c-0.19-0.19-0.39-0.39-0.58-0.58c0.46-0.18,0.92-0.36,1.39-0.53c0.07,0.11,0.14,0.21,0.22,0.32
				C55.85,79.81,55.51,80.08,55.17,80.34z"/>
			<path class="st9" d="M96.93,52.65c0.01,0.2,0.03,0.4,0.04,0.59c-0.39-0.01-0.78-0.02-1.16-0.04l0.05,0.04
				c-0.2-0.2-0.41-0.41-0.61-0.61l0.03,0.02c-0.01-0.19-0.02-0.38-0.03-0.57c0.38,0.01,0.76,0.02,1.15,0.03l-0.03-0.03
				c0.2,0.2,0.41,0.41,0.61,0.61L96.93,52.65z"/>
			<path class="st9" d="M54.03,71.87c-0.19-0.19-0.38-0.38-0.57-0.57c0-0.2,0-0.4,0-0.59c0.38,0.01,0.77,0.02,1.15,0.03l-0.03-0.04
				c0.2,0.2,0.41,0.41,0.61,0.61l-0.03-0.02C54.78,71.48,54.41,71.68,54.03,71.87z"/>
			<path class="st9" d="M95.84,78.61c-0.39,0.01-0.78,0.02-1.17,0.03c0.58-0.37,1.16-0.75,1.73-1.12l-0.03-0.03
				c0,0.19,0,0.39,0,0.58c0,0,0.04-0.03,0.04-0.03c-0.2,0.2-0.4,0.4-0.6,0.6L95.84,78.61z"/>
			<path class="st9" d="M85.64,79.78c0-0.2,0-0.4,0-0.6c0.57-0.18,1.15-0.35,1.72-0.53c0,0-0.02-0.03-0.02-0.03c0,0.2,0,0.4,0,0.6
				l0.03-0.04c-0.2,0.2-0.4,0.4-0.6,0.6l0.04-0.03C86.42,79.75,86.03,79.76,85.64,79.78z"/>
			<path class="st9" d="M96.97,54.36c-0.19,0.19-0.38,0.38-0.57,0.58c-0.2-0.39-0.39-0.78-0.59-1.17c0.39,0,0.78,0,1.16,0
				C96.97,53.97,96.97,54.17,96.97,54.36z"/>
			<path class="st9" d="M54.04,58.32c-0.19-0.19-0.38-0.38-0.57-0.58c0-0.2,0-0.4,0-0.59c0.38,0.17,0.77,0.33,1.15,0.5
				C54.42,57.88,54.23,58.1,54.04,58.32z"/>
			<path class="st9" d="M95.23,74.66c-0.14,0.13-0.27,0.25-0.06,0.06c-0.27,0.09-0.09,0.03,0.09-0.03L95.23,74.66z"/>
			<path class="st9" d="M94.1,51.52c0.39,0,0.79,0,1.18,0c0,0.2,0,0.41,0,0.61C94.88,51.92,94.49,51.72,94.1,51.52z"/>
			<path class="st9" d="M95.84,67.88c0,0.2,0,0.4,0,0.6c-0.21-0.08-0.43-0.16-0.78-0.3C95.41,68.05,95.62,67.97,95.84,67.88z"/>
			<path class="st9" d="M53.46,69.05c0-0.2,0-0.4,0-0.61c0.39,0,0.79,0,1.18,0.01C54.25,68.65,53.85,68.85,53.46,69.05z"/>
			<path class="st9" d="M96.94,72.42c-0.37,0.18-0.75,0.37-1.12,0.55L95.84,73c0-0.2,0-0.4,0-0.6c0,0-0.03,0.03-0.03,0.03
				c0.39,0,0.78,0,1.16,0L96.94,72.42z"/>
			<path class="st9" d="M96.37,62.81c-0.14,0.12-0.28,0.24-0.08,0.06c-0.26,0.06-0.07,0.02,0.12-0.03
				C96.41,62.84,96.37,62.81,96.37,62.81z"/>
			<path class="st9" d="M95.8,70.71c0,0.2,0,0.39,0,0.59c0,0,0.04-0.04,0.04-0.04c-0.16-0.12-0.31-0.24-0.47-0.37
				c0.16-0.05,0.31-0.1,0.47-0.15C95.85,70.75,95.8,70.71,95.8,70.71z"/>
			<path class="st9" d="M63.67,74.66c-0.4,0.2-0.79,0.4-1.19,0.6C62.88,75.06,63.27,74.86,63.67,74.66z"/>
			<path class="st9" d="M97.55,67.35c-0.39,0-0.79,0-1.18,0c0.06-0.16,0.1-0.32,0.11-0.49C96.83,67.03,97.19,67.19,97.55,67.35z"/>
			<path class="st9" d="M96.36,78.07c0.16,0.13,0.31,0.26,0.47,0.39c-0.15,0.05-0.31,0.11-0.46,0.16c0,0,0.03,0.03,0.03,0.03
				c0-0.2,0-0.41-0.01-0.61L96.36,78.07z"/>
			<path class="st9" d="M61.4,79.18c-0.39,0.01-0.79,0.02-1.18,0.03c0.39-0.19,0.79-0.38,1.18-0.56c0,0-0.03-0.03-0.03-0.03
				c0,0.2,0,0.4,0,0.6L61.4,79.18z"/>
			<path class="st9" d="M96.37,70.18c0-0.2,0-0.4,0-0.6c0.23,0.08,0.47,0.17,0.83,0.29C96.84,70,96.6,70.09,96.37,70.18z"/>
			<path class="st9" d="M54.03,65.67c0-0.2,0-0.4,0-0.61c0.22,0.08,0.43,0.15,0.8,0.28C54.46,65.49,54.24,65.58,54.03,65.67z"/>
			<path class="st9" d="M95.28,76.38c0.37-0.18,0.75-0.36,1.12-0.55l-0.03-0.03c-0.37,0.18-0.75,0.36-1.12,0.55L95.28,76.38z"/>
			<path class="st9" d="M81.13,78.08c0-0.2,0-0.4,0-0.6c0.39,0.2,0.79,0.4,1.18,0.6C81.91,78.08,81.52,78.08,81.13,78.08z"/>
			<path class="st9" d="M96.93,71.28c0,0.19,0,0.38,0.01,0.58l0.03-0.02c-0.39,0-0.78,0-1.17,0l0.04,0.03c0-0.2,0-0.4,0-0.59
				c0,0-0.04,0.04-0.04,0.04c0.39,0,0.77,0,1.16,0.01L96.93,71.28z"/>
			<path class="st9" d="M95.25,74.69c0.38-0.19,0.75-0.38,1.13-0.56l-0.03-0.03c-0.38,0.19-0.75,0.38-1.13,0.56L95.25,74.69z"/>
			<path class="st9" d="M96.37,56.03c0.39,0,0.78,0,1.18,0.01c-0.39,0.18-0.78,0.37-1.17,0.55l0.03,0.03
				C96.39,56.42,96.38,56.22,96.37,56.03z"/>
			<path class="st9" d="M96.39,74.12c0.12-0.1,0.24-0.21,0.36-0.31c-0.13,0.09-0.26,0.19-0.39,0.28L96.39,74.12z"/>
			<path class="st9" d="M54.03,64.54c0-0.2,0.01-0.4,0.01-0.6c0.15,0.14,0.3,0.27,0.44,0.41C54.33,64.41,54.18,64.47,54.03,64.54z"
				/>
			<path class="st9" d="M54.6,61.72c0-0.21,0-0.41,0-0.62c0.05,0.14,0.12,0.28,0.14,0.42C54.75,61.58,54.65,61.65,54.6,61.72z"/>
			<path class="st9" d="M54.6,62.85c0-0.21,0-0.42,0-0.63c0.04,0.14,0.11,0.28,0.13,0.43C54.73,62.71,54.64,62.78,54.6,62.85z"/>
			<path class="st9" d="M96.37,62.24c0.2,0,0.4,0,0.6,0c-0.2,0.19-0.4,0.38-0.6,0.57c0,0,0.04,0.03,0.04,0.03
				C96.4,62.64,96.38,62.44,96.37,62.24z"/>
			<path class="st9" d="M54.02,63.41c0.21-0.21,0.41-0.41,0.62-0.62C54.43,63,54.22,63.21,54.02,63.41z"/>
			<path class="st9" d="M96.41,64.53c-0.21,0-0.41,0-0.62,0C96,64.53,96.21,64.53,96.41,64.53z"/>
			<path class="st9" d="M54.63,66.79c-0.2,0-0.4,0-0.61,0c0-0.2,0-0.4,0-0.61C54.23,66.38,54.43,66.58,54.63,66.79z"/>
			<path class="st9" d="M54.59,67.37c0-0.21,0-0.41,0-0.62C54.6,66.95,54.6,67.16,54.59,67.37z"/>
			<polygon class="st9" points="95.25,66.75 95.13,66.88 95.28,66.78 			"/>
			<path class="st9" d="M96.4,67.92c-0.2,0-0.4,0-0.61,0c0.2-0.2,0.4-0.41,0.61-0.61C96.4,67.51,96.4,67.71,96.4,67.92z"/>
			<path class="st9" d="M54.59,68.49c0-0.21,0-0.41,0-0.62C54.59,68.08,54.59,68.29,54.59,68.49z"/>
			<path class="st9" d="M53.46,70.19c0-0.21,0-0.42,0-0.63c0.05,0.14,0.12,0.29,0.14,0.44C53.62,70.05,53.52,70.12,53.46,70.19z"/>
			<path class="st9" d="M95.8,70.14c0.2,0,0.4,0,0.61,0c-0.2,0.19-0.4,0.38-0.61,0.57c0,0,0.04,0.03,0.04,0.03
				C95.83,70.55,95.82,70.34,95.8,70.14z"/>
			<path class="st9" d="M55.17,70.74c0.04,0.13,0.09,0.25,0.11,0.38c0.01,0.05-0.08,0.12-0.12,0.18l0.03,0.02c0-0.2,0-0.41,0-0.61
				L55.17,70.74z"/>
			<path class="st9" d="M96.96,71.31c0.03-0.07,0.05-0.15,0.08-0.22c-0.04,0.06-0.08,0.12-0.12,0.19L96.96,71.31z"/>
			<path class="st9" d="M95.27,72.42c0.19-0.19,0.38-0.37,0.57-0.56c0,0-0.04-0.03-0.04-0.03c0,0.2,0,0.4,0,0.6
				c0,0,0.03-0.03,0.03-0.03c-0.2,0-0.4,0-0.6,0L95.27,72.42z"/>
			<path class="st9" d="M96.93,71.85c0.04,0.13,0.1,0.25,0.12,0.38c0.01,0.05-0.07,0.12-0.12,0.18c0,0,0.03,0.02,0.03,0.02
				c0-0.2,0-0.4,0-0.6L96.93,71.85z"/>
			<path class="st9" d="M95.27,72.96c-0.06-0.12-0.14-0.25-0.17-0.38c-0.01-0.04,0.11-0.11,0.17-0.16c0,0-0.03-0.02-0.03-0.02
				c0,0.2,0,0.4,0,0.6L95.27,72.96z"/>
			<path class="st9" d="M95.81,72.97c-0.18,0-0.36,0-0.55,0c0,0-0.03,0.04-0.03,0.04c0.2,0,0.4,0,0.6,0L95.81,72.97z"/>
			<path class="st9" d="M53.46,73.53c0.2,0,0.4,0,0.6,0c0,0.2,0,0.4,0,0.6C53.86,73.93,53.66,73.73,53.46,73.53z"/>
			<path class="st9" d="M54.03,74.7c0-0.2,0-0.41,0-0.61C54.03,74.29,54.03,74.5,54.03,74.7z"/>
			<path class="st9" d="M64.23,74.69c-0.21,0-0.41,0-0.62,0C63.82,74.69,64.03,74.69,64.23,74.69z"/>
			<path class="st9" d="M62.54,75.21c-0.2,0.2-0.41,0.41-0.61,0.61C62.13,75.62,62.33,75.42,62.54,75.21z"/>
			<path class="st9" d="M54.61,70.74c0.18,0,0.37,0,0.55,0l0.03-0.04c-0.2,0-0.41,0-0.61,0L54.61,70.74z"/>
			<path class="st9" d="M96.4,75.83c0.19-0.19,0.38-0.39,0.57-0.58l-0.03-0.03c-0.19,0.19-0.38,0.39-0.57,0.58L96.4,75.83z"/>
			<path class="st9" d="M61.96,75.78c0,0.21,0,0.41,0,0.62C61.96,76.19,61.96,75.99,61.96,75.78z"/>
			<path class="st9" d="M93.55,50.95c0.2,0,0.4,0,0.6,0c0,0.2,0,0.4,0,0.6c-0.2-0.01-0.39-0.03-0.59-0.04l0.03,0.03
				C93.57,51.34,93.56,51.14,93.55,50.95z"/>
			<path class="st9" d="M54.6,52.12c0-0.21,0-0.41,0-0.62c0.06,0.14,0.13,0.28,0.16,0.43C54.77,51.98,54.65,52.06,54.6,52.12z"/>
			<path class="st9" d="M93.56,51.51l0.03,0.03L93.56,51.51z"/>
			<polygon class="st9" points="81.16,76.94 81.24,76.83 81.12,76.91 			"/>
			<path class="st9" d="M94.71,76.94c0.19-0.19,0.38-0.38,0.56-0.57l-0.03-0.03c-0.19,0.19-0.38,0.38-0.57,0.56L94.71,76.94z"/>
			<path class="st9" d="M54.6,76.94c0.07,0.13,0.15,0.25,0.18,0.39c0.01,0.04-0.12,0.11-0.19,0.17l0.03,0.02c0-0.21,0-0.41,0-0.62
				L54.6,76.94z"/>
			<path class="st9" d="M81.16,77.52c-0.2,0-0.41,0-0.61,0c0.2-0.19,0.4-0.39,0.6-0.58l-0.04-0.03
				C81.13,77.11,81.15,77.31,81.16,77.52z"/>
			<polygon class="st9" points="94.68,76.91 94.55,77.07 94.71,76.94 			"/>
			<path class="st9" d="M96.4,77.52c0.02-0.07,0.05-0.14,0.07-0.21c-0.04,0.06-0.07,0.12-0.11,0.17L96.4,77.52z"/>
			<path class="st9" d="M95.26,53.21c-0.06-0.13-0.13-0.25-0.16-0.39c-0.01-0.04,0.11-0.11,0.16-0.17l-0.03-0.02
				c0,0.2,0,0.41-0.01,0.61L95.26,53.21z"/>
			<path class="st9" d="M61.4,77.47c0,0.21,0,0.42,0,0.62c-0.05-0.14-0.13-0.28-0.15-0.43C61.24,77.61,61.34,77.53,61.4,77.47z"/>
			<path class="st9" d="M95.81,53.2c0.01,0.2,0.02,0.41,0.03,0.61c-0.19-0.2-0.38-0.4-0.57-0.61c0,0-0.03,0.04-0.03,0.04
				c0.21,0,0.41,0,0.62,0L95.81,53.2z"/>
			<path class="st9" d="M89.62,78.07c0.18,0,0.37,0,0.55,0l0.03-0.02c-0.2,0-0.4,0-0.6,0L89.62,78.07z"/>
			<path class="st9" d="M53.5,78.65c-0.2,0-0.4,0-0.6,0c0-0.2,0-0.4,0-0.6c0.2,0,0.4,0,0.6,0C53.5,78.25,53.5,78.45,53.5,78.65z"/>
			<path class="st9" d="M61.97,78.05c-0.01,0.2-0.03,0.4-0.04,0.6c0,0,0.03-0.03,0.03-0.03c-0.2,0-0.39-0.01-0.59-0.01
				c0,0,0.03,0.03,0.03,0.03c-0.01-0.2-0.02-0.4-0.03-0.6C61.57,78.05,61.77,78.05,61.97,78.05z"/>
			<path class="st9" d="M96.37,54.9c0.2,0,0.4,0,0.6,0c-0.2,0.2-0.4,0.4-0.6,0.6C96.37,55.3,96.37,55.1,96.37,54.9z"/>
			<path class="st9" d="M85.12,78.64c-0.21,0-0.41,0-0.62,0C84.71,78.64,84.92,78.64,85.12,78.64z"/>
			<path class="st9" d="M87.36,78.64c0.19,0,0.37,0,0.56,0c0,0,0.02-0.03,0.02-0.03c-0.2,0-0.4,0-0.6,0L87.36,78.64z"/>
			<path class="st9" d="M90.17,78.07c0.19,0.19,0.37,0.38,0.56,0.56c0,0,0.03-0.02,0.03-0.02c-0.2,0-0.4,0-0.6,0l0.03,0.05
				c0-0.2,0-0.41,0-0.61C90.19,78.05,90.17,78.07,90.17,78.07z"/>
			<path class="st9" d="M93.58,78.64c0.17,0,0.35,0.01,0.52,0.01c0,0,0.04-0.04,0.04-0.04c-0.2,0-0.4,0-0.6,0L93.58,78.64z"/>
			<path class="st9" d="M53.47,79.22c0-0.2,0-0.41,0-0.61C53.47,78.81,53.47,79.01,53.47,79.22z"/>
			<path class="st9" d="M96.4,55.45c0,0.21,0,0.41,0,0.62c-0.05-0.14-0.12-0.28-0.14-0.43C96.25,55.59,96.35,55.52,96.4,55.45z"/>
			<path class="st9" d="M85.69,79.21c-0.2,0-0.41,0-0.61,0c0-0.2,0-0.41,0-0.61C85.29,78.8,85.49,79.01,85.69,79.21z"/>
			<path class="st9" d="M90.72,78.63c0.07,0.13,0.15,0.25,0.19,0.38c0.01,0.03-0.12,0.11-0.18,0.16l0.02,0.03c0-0.2,0-0.4,0-0.6
				C90.76,78.61,90.72,78.63,90.72,78.63z"/>
			<path class="st9" d="M93.02,79.21c0.19-0.19,0.38-0.38,0.56-0.57c0,0-0.04-0.03-0.04-0.03c0,0.2,0,0.4,0,0.6
				c0,0,0.03-0.03,0.03-0.03c-0.19,0-0.39,0-0.58,0L93.02,79.21z"/>
			<path class="st9" d="M94.72,78.61c-0.2,0.19-0.4,0.38-0.6,0.56l0.03,0.03c0-0.2,0-0.4,0-0.6l-0.04,0.04
				C94.31,78.64,94.51,78.62,94.72,78.61z"/>
			<polygon class="st9" points="96.37,56.59 96.25,56.77 96.4,56.62 			"/>
			<path class="st9" d="M96.4,79.21c-0.2,0-0.4,0-0.6,0c0.01-0.2,0.02-0.4,0.03-0.6c0,0-0.04,0.03-0.04,0.03c0.2,0,0.4,0,0.61,0.01
				c0,0-0.03-0.03-0.03-0.03C96.38,78.81,96.39,79.01,96.4,79.21z"/>
			<path class="st9" d="M58.59,79.77c-0.2,0-0.41,0-0.61,0C58.18,79.77,58.38,79.77,58.59,79.77z"/>
			<path class="st9" d="M60.27,79.78c-0.2,0-0.41,0-0.61,0c0.2-0.2,0.4-0.41,0.61-0.61C60.27,79.37,60.27,79.57,60.27,79.78z"/>
			<path class="st9" d="M96.96,57.71c0,0.2,0,0.41,0,0.61C96.96,58.12,96.96,57.92,96.96,57.71z"/>
			<path class="st9" d="M90.74,79.18c-0.19,0.2-0.38,0.39-0.57,0.59l0.03,0.02c0-0.21,0-0.42,0-0.63c0,0-0.03,0.05-0.03,0.05
				c0.2,0,0.4,0,0.6,0L90.74,79.18z"/>
			<path class="st9" d="M93.02,79.74c-0.2,0.01-0.41,0.02-0.61,0.04c0.2-0.19,0.41-0.38,0.61-0.57c0,0-0.03-0.02-0.03-0.02
				c0,0.19,0,0.39,0,0.58L93.02,79.74z"/>
			<path class="st9" d="M96.37,79.78c0-0.2,0-0.41,0-0.61C96.37,79.37,96.37,79.58,96.37,79.78z"/>
			<path class="st9" d="M54.03,61.14c0-0.2,0-0.4,0-0.61c0.2,0.2,0.4,0.4,0.6,0.6C54.43,61.14,54.23,61.14,54.03,61.14z"/>
			<path class="st9" d="M74.35,78.62c0,0.19,0,0.38,0,0.58c0,0,0.03-0.04,0.03-0.04c-0.05,0.07-0.14,0.14-0.13,0.2
				c0.02,0.15,0.08,0.29,0.13,0.43l-0.04-0.06c0.21,0.21,0.41,0.41,0.62,0.62c0,0-0.04-0.04-0.04-0.04c0,0.2,0,0.4,0,0.6l0.03-0.03
				c-0.6,0.53-1.18,1.08-1.8,1.59c-1.19,0.97-2.69,0.8-3.67-0.39c-1.02-1.24-0.73-2.3,0.96-3.46c-0.08,2.42-0.06,2.44,2.35,2.85
				c0.48-2.44,0.39-2.55-2.39-2.81c0.95-0.19,1.9-0.38,2.85-0.57c0,0-0.04-0.03-0.04-0.03c0.4,0.2,0.79,0.4,1.19,0.61L74.35,78.62z"
				/>
			<path class="st9" d="M70.41,75.82c0.38,0,0.76,0,1.14-0.01c0,0-0.04-0.03-0.04-0.03c0.2,0.2,0.41,0.41,0.61,0.61l-0.03-0.03
				c0.01,0.19,0.02,0.39,0.04,0.58c-0.76-0.2-1.51-0.39-2.27-0.59c0,0-0.03,0.04-0.03,0.04c0.21-0.21,0.41-0.41,0.62-0.62
				L70.41,75.82z"/>
			<path class="st9" d="M73.26,76.91c0,0.2,0,0.41,0,0.61c-0.39-0.2-0.79-0.4-1.18-0.6C72.47,76.92,72.87,76.92,73.26,76.91z"/>
			<path class="st9" d="M73.22,77.48c0.39,0.01,0.77,0.02,1.16,0.03c0,0-0.03-0.04-0.03-0.04c0,0.2,0,0.4,0,0.6l0.04-0.04
				c-0.39,0-0.79,0-1.18,0c0,0,0.04,0.03,0.04,0.03C73.24,77.88,73.23,77.68,73.22,77.48z"/>
			<path class="st9" d="M76.05,80.87c0.01,0.2,0.02,0.4,0.03,0.6c-0.39-0.01-0.77-0.03-1.16-0.04l0.03,0.03c0-0.2,0-0.39-0.01-0.59
				c0,0-0.03,0.03-0.03,0.03c0.39,0,0.77,0,1.16,0L76.05,80.87z"/>
			<path class="st9" d="M69.27,76.39c0-0.2,0-0.4,0-0.6c0.2,0.01,0.4,0.02,0.6,0.04l-0.04-0.04c0,0.21,0,0.41,0,0.62
				c0,0,0.03-0.04,0.03-0.04C69.67,76.37,69.47,76.38,69.27,76.39z"/>
			<path class="st9" d="M68.7,76.36c0.21,0,0.41,0,0.62,0C69.11,76.36,68.9,76.36,68.7,76.36z"/>
			<polygon class="st9" points="74.92,81.43 74.79,81.6 74.95,81.46 			"/>
			<path class="st9" d="M76.64,82.03c-0.2,0-0.4,0-0.6,0c0-0.2,0-0.4,0-0.6c0.2,0,0.4,0,0.6,0C76.64,81.63,76.64,81.83,76.64,82.03z
				"/>
			<path class="st9" d="M76.08,81.99c0,0.2,0,0.41,0,0.61c-0.2-0.01-0.4-0.03-0.59-0.04l0.04,0.04
				C75.71,82.39,75.89,82.19,76.08,81.99z"/>
			<polygon class="st9" points="75.49,82.56 75.39,82.67 75.52,82.59 			"/>
			<path class="st9" d="M76.04,82.57c0.2,0,0.41,0,0.61,0C76.45,82.57,76.24,82.57,76.04,82.57z"/>
			<path class="st9" d="M74.96,85.42c-0.21,0-0.41,0-0.62,0C74.55,85.42,74.75,85.42,74.96,85.42z"/>
			<path class="st9" d="M63.67,76.38c-0.2,0-0.41,0-0.61,0C63.26,76.38,63.46,76.38,63.67,76.38z"/>
			<path class="st9" d="M94.12,79.17c-0.19,0.19-0.38,0.38-0.58,0.56c0,0,0.03,0.03,0.03,0.03c0-0.19,0-0.39,0-0.58
				c0,0-0.03,0.03-0.03,0.03c0.2,0,0.4,0,0.6,0L94.12,79.17z"/>
			<path class="st9" d="M95.84,79.77c-0.2,0-0.4,0-0.61,0c0.2-0.2,0.4-0.4,0.6-0.61C95.84,79.37,95.84,79.57,95.84,79.77z"/>
			<path class="st9" d="M93.58,80.34c-0.2,0-0.4,0-0.6,0c0.01-0.2,0.03-0.4,0.04-0.6c0,0-0.03,0.03-0.03,0.03c0.19,0,0.39,0,0.58,0
				c0,0-0.03-0.03-0.03-0.03C93.56,79.94,93.57,80.14,93.58,80.34z"/>
			<path class="st9" d="M95.28,80.34c-0.2,0-0.4,0-0.61,0c0.2-0.2,0.4-0.4,0.6-0.6C95.27,79.94,95.27,80.14,95.28,80.34z"/>
			<path class="st9" d="M85.08,79.74c0.2,0,0.4,0,0.6,0c-0.2,0.2-0.4,0.4-0.6,0.61C85.08,80.15,85.08,79.94,85.08,79.74z"/>
			<path class="st9" d="M95.81,50.99c0-0.2,0-0.4,0-0.61c0.2,0,0.4,0,0.6,0C96.21,50.59,96.01,50.79,95.81,50.99z"/>
			<path class="st9" d="M95.24,50.95c0.2,0,0.4,0,0.61,0c-0.2,0.2-0.4,0.4-0.6,0.6C95.24,51.35,95.24,51.15,95.24,50.95z"/>
			<path class="st9" d="M96.96,51.51c-0.01,0.2-0.02,0.4-0.03,0.59l0.04-0.03c-0.21,0-0.41,0-0.62,0l0.03,0.03
				C96.58,51.91,96.77,51.71,96.96,51.51z"/>
			<path class="st9" d="M74.95,75.79c0,0.2,0,0.4,0,0.6c-0.39,0-0.78,0-1.16,0c0.01-0.19,0.02-0.38,0.03-0.57
				C74.19,75.81,74.57,75.8,74.95,75.79z"/>
			<path class="st9" d="M72.1,75.81c0.2-0.01,0.4-0.02,0.6-0.02c-0.2,0.19-0.4,0.39-0.6,0.58c0,0,0.03,0.03,0.03,0.03
				c0-0.21,0-0.41,0-0.62L72.1,75.81z"/>
			<path class="st9" d="M73.83,76.34c-0.2,0.21-0.41,0.41-0.61,0.62C73.42,76.75,73.63,76.55,73.83,76.34z"/>
			<path class="st9" d="M76.05,79.75c0,0.2,0,0.39,0,0.59c0,0,0.03-0.03,0.03-0.03c-0.39,0-0.77,0-1.16,0l0.04,0.04
				c-0.21-0.21-0.41-0.41-0.62-0.62l0.04,0.06c0-0.21,0-0.42,0-0.63c0,0-0.03,0.04-0.03,0.04c0.38,0,0.77,0,1.15,0.01
				c0,0-0.04-0.04-0.04-0.04c0.2,0.21,0.41,0.41,0.61,0.62L76.05,79.75z"/>
			<path class="st9" d="M76.08,77.48c0,0.2,0,0.4-0.01,0.59c-0.38-0.01-0.77-0.02-1.15-0.03c0,0,0.03,0.04,0.03,0.04
				c0-0.2,0-0.4-0.01-0.59l-0.03,0.03C75.3,77.51,75.69,77.49,76.08,77.48z"/>
			<path class="st9" d="M74.92,78.04c-0.19,0.19-0.38,0.39-0.57,0.58l0.04,0.03c0-0.2,0-0.41,0-0.61c0,0-0.04,0.04-0.04,0.04
				c0.2,0,0.4,0,0.6,0L74.92,78.04z"/>
			<path class="st9" d="M76.08,78.61c-0.01,0.2-0.01,0.39-0.02,0.59c0,0,0.01-0.01,0.01-0.01c-0.2,0-0.4-0.01-0.6-0.01
				c0,0,0.04,0.04,0.04,0.04C75.69,79.01,75.89,78.81,76.08,78.61z"/>
			<path class="st9" d="M74.95,76.91c-0.01,0.2-0.02,0.41-0.04,0.61c0,0,0.03-0.03,0.03-0.03c-0.2,0-0.4,0-0.59-0.01
				c0,0,0.03,0.04,0.03,0.04C74.57,77.31,74.76,77.11,74.95,76.91z"/>
			<path class="st9" d="M72.13,75.22c-0.01,0.2-0.02,0.39-0.03,0.59c0,0,0.03-0.03,0.03-0.03c-0.21,0-0.41,0-0.62,0
				c0,0,0.04,0.03,0.04,0.03c-0.01-0.2-0.02-0.4-0.03-0.59C71.73,75.22,71.93,75.22,72.13,75.22z"/>
			<path class="st9" d="M69.87,75.82c-0.01-0.2-0.02-0.4-0.03-0.61c0.19,0.2,0.39,0.4,0.58,0.61c0,0,0.03-0.04,0.03-0.04
				c-0.21,0-0.41,0-0.62,0C69.83,75.78,69.87,75.82,69.87,75.82z"/>
			<path class="st9" d="M87.37,80.34c-0.2,0-0.4,0-0.6,0c0.01-0.2,0.02-0.4,0.03-0.6c0,0-0.04,0.03-0.04,0.03c0.2,0,0.41,0,0.61,0
				l-0.03-0.03C87.35,79.95,87.36,80.14,87.37,80.34z"/>
			<path class="st9" d="M97.55,52.68c-0.21-0.01-0.41-0.02-0.62-0.03l0.04,0.04c0-0.21,0-0.41,0-0.62l-0.04,0.03
				C97.14,52.29,97.34,52.49,97.55,52.68z"/>
			<path class="st9" d="M61.93,78.65c0.2-0.01,0.41-0.02,0.61-0.04c-0.2,0.19-0.4,0.38-0.6,0.57c0,0,0.02,0.02,0.02,0.02
				c0-0.19,0-0.39,0-0.58L61.93,78.65z"/>
			<path class="st9" d="M61.97,79.77c-0.2,0-0.4,0-0.6,0c0.01-0.2,0.02-0.4,0.04-0.6c0,0-0.03,0.03-0.03,0.03c0.2,0,0.39,0,0.59,0
				c0,0-0.02-0.02-0.02-0.02C61.95,79.38,61.96,79.58,61.97,79.77z"/>
			<path class="st9" d="M81.16,78.64c-0.2,0-0.4,0-0.6,0c0-0.2,0-0.4,0-0.6c0.2,0,0.4,0,0.6,0C81.16,78.24,81.16,78.44,81.16,78.64z
				"/>
			<path class="st9" d="M76.64,79.77c-0.2-0.01-0.39-0.02-0.59-0.03c0,0,0.03,0.04,0.03,0.04c0-0.2-0.01-0.4-0.01-0.6
				c0,0-0.01,0.01-0.01,0.01c0.19-0.01,0.39-0.01,0.58-0.02C76.64,79.37,76.64,79.57,76.64,79.77z"/>
			<path class="st9" d="M76.64,80.9c-0.2-0.01-0.4-0.02-0.6-0.03c0,0,0.03,0.03,0.03,0.03c0-0.2,0-0.39,0-0.59
				c0,0-0.03,0.03-0.03,0.03c0.2-0.01,0.4-0.02,0.59-0.03C76.64,80.5,76.64,80.7,76.64,80.9z"/>
			<path class="st9" d="M87.93,79.75c-0.19,0-0.39,0-0.58,0c0,0,0.03,0.03,0.03,0.03c0-0.2,0-0.41,0-0.61c0,0-0.03,0.04-0.03,0.04
				c0.2,0,0.4,0,0.6,0l-0.03-0.05c0,0.21,0,0.41-0.01,0.62L87.93,79.75z"/>
			<path class="st9" d="M88.5,80.34c-0.2,0-0.4,0-0.6,0c0.01-0.2,0.02-0.39,0.03-0.59c0,0-0.03,0.03-0.03,0.03
				c0.2,0,0.41,0,0.61-0.01c0,0-0.03-0.02-0.03-0.02C88.48,79.95,88.49,80.14,88.5,80.34z"/>
			<path class="st9" d="M111.07,54.37c1.25,0.32,2.58,0.46,3.71,1.01c0.85,0.41,1.61,1.24,2.12,2.07c0.81,1.34,1.38,2.82,2.06,4.24
				l0.03-0.03c0,0.21,0,0.42,0,0.63l-0.03-0.03c1.22,1.72,1,3.73,1.12,5.67l0.05-0.05c-5.57-0.09-11.14,0.93-16.99,0.29
				c-0.22-3.17-0.51-6.05-0.59-8.93c-0.08-2.74,0.87-3.99,3.53-4.58c1.42-0.32,2.94-0.21,4.42-0.29l-0.02-0.03c0.21,0,0.42,0,0.63,0
				L111.07,54.37z M113.33,66.78c1.71,0.14,3.43,0.29,5.59,0.47c-0.76-3.69-1.31-6.76-3.94-8.98l0.04,0.03
				c-2.34-2.7-7.33-3.8-10.19-2.04c-0.74,0.45-1.46,1.62-1.46,2.46c0,2.78,0.33,5.56,0.57,8.82c3.35-0.28,6.38-0.53,9.41-0.79
				L113.33,66.78z"/>
			<path class="st9" d="M100.88,61.15c0-0.2,0-0.4,0-0.61c0.15,0.14,0.3,0.28,0.46,0.42C101.19,61.02,101.04,61.08,100.88,61.15z"/>
			<path class="st9" d="M118.95,61.69c0.07,0.13,0.15,0.26,0.19,0.41c0.01,0.04-0.12,0.11-0.19,0.17l0.03,0.03c0-0.21,0-0.42,0-0.63
				L118.95,61.69z"/>
			<path class="st9" d="M100.89,63.98c0-0.21,0-0.41,0-0.62c0.06,0.14,0.14,0.28,0.18,0.43C101.07,63.84,100.95,63.91,100.89,63.98z
				"/>
			<path class="st9" d="M100.89,65.1c0-0.21,0-0.41,0-0.62c0.07,0.15,0.16,0.29,0.19,0.44C101.09,64.96,100.96,65.04,100.89,65.1z"
				/>
			<path class="st9" d="M101.49,67.35c-0.2,0-0.4,0-0.61,0c0-0.2,0-0.4,0-0.6C101.09,66.95,101.29,67.15,101.49,67.35z"/>
			<path class="st9" d="M101.46,67.93c0-0.21,0-0.41,0-0.62c0.06,0.14,0.14,0.28,0.17,0.43C101.63,67.79,101.52,67.86,101.46,67.93z
				"/>
			<path class="st9" d="M101.45,69.06c0-0.21,0-0.42,0-0.63C101.45,68.64,101.45,68.85,101.45,69.06z"/>
			<path class="st9" d="M100.89,69.62c0-0.2,0-0.41-0.01-0.61c0.2,0,0.41,0,0.61,0C101.29,69.21,101.09,69.42,100.89,69.62z"/>
			<path class="st9" d="M101.49,73.56c-0.2,0-0.4,0-0.61,0c0-0.2,0-0.4,0-0.61C101.09,73.16,101.29,73.36,101.49,73.56z"/>
			<path class="st9" d="M101.45,74.14c0-0.21,0-0.41,0-0.62C101.45,73.73,101.45,73.93,101.45,74.14z"/>
			<path class="st9" d="M101.45,76.95c0-0.21,0-0.41,0-0.62c0.2,0.2,0.41,0.41,0.61,0.61C101.86,76.95,101.65,76.95,101.45,76.95z"
				/>
			<path class="st9" d="M110.49,54.37c0.19,0,0.39,0,0.58,0l0.02-0.03c-0.21,0-0.42,0-0.63,0L110.49,54.37z"/>
			<path class="st9" d="M101.49,55.49c-0.2,0-0.4,0-0.61,0.01c0-0.2,0-0.41,0-0.61C101.09,55.09,101.29,55.29,101.49,55.49z"/>
			<path class="st9" d="M101.45,56.07c0-0.21,0-0.41,0-0.62c0.07,0.14,0.15,0.28,0.18,0.43C101.65,55.93,101.52,56.01,101.45,56.07z
				"/>
			<path class="st9" d="M101.45,57.2c0-0.21,0-0.41,0-0.62C101.45,56.79,101.45,57,101.45,57.2z"/>
			<path class="st9" d="M117.26,75.83c0-0.21,0-0.42,0-0.62c0.06,0.14,0.13,0.28,0.16,0.43C117.43,75.69,117.32,75.77,117.26,75.83z
				"/>
			<path class="st9" d="M111.73,79.69c0.35,0.01,0.7,0.03,1.05,0.04c-0.02,0.2-0.03,0.39-0.05,0.59l0.03-0.03
				c-0.4,0.52-0.74,1.08-1.2,1.54c-1.04,1.06-2.3,1.1-3.22,0.11c-0.99-1.08-1-2.18,0.1-3.21c0.48-0.45,1-0.85,1.5-1.27
				c0.18,0.39,0.35,0.78,0.53,1.18l0.04-0.04c-1.8,0.8-1.73,1.8-0.05,3.29c0.42-0.8,0.76-1.45,1.1-2.09L111.73,79.69z"/>
			<path class="st9" d="M115,82.01c-0.55,0.19-1.1,0.38-1.66,0.57l-0.04,0.02c0.2-0.2,0.4-0.4,0.6-0.6c0,0-0.04,0.03-0.04,0.03
				c0.39,0,0.78,0,1.17,0L115,82.01z"/>
			<path class="st9" d="M115.6,80.9c-0.2,0.19-0.4,0.38-0.6,0.57l0.04-0.04c-0.39,0-0.78,0-1.16,0l0.04,0.03
				c0.18-0.39,0.35-0.77,0.53-1.16c0.39,0,0.78,0,1.16,0C115.6,80.5,115.6,80.7,115.6,80.9z"/>
			<path class="st9" d="M109.95,76.91c-0.39,0-0.77,0-1.16,0c0,0,0.02,0.03,0.02,0.03c0-0.2,0-0.39,0-0.58l-0.03,0.03
				c0.39-0.01,0.78-0.02,1.16-0.03c-0.01,0.2-0.02,0.4-0.03,0.59L109.95,76.91z"/>
			<path class="st9" d="M107.65,76.35c0.2,0.01,0.4,0.02,0.6,0.02l-0.02-0.02c0,0.2,0,0.39,0,0.59l0.02-0.03
				C108.05,76.73,107.85,76.54,107.65,76.35z"/>
			<path class="st9" d="M108.8,76.91c-0.18,0-0.36,0-0.54,0c0,0-0.02,0.03-0.02,0.03c0.2,0,0.39,0,0.59,0L108.8,76.91z"/>
			<path class="st9" d="M110.48,76.92c-0.19,0.2-0.38,0.4-0.56,0.61c0.01-0.2,0.03-0.41,0.04-0.61c0,0-0.04,0.04-0.04,0.04
				c0.2,0,0.4,0,0.6,0C110.52,76.95,110.48,76.92,110.48,76.92z"/>
			<path class="st9" d="M114.43,77.48c0.2,0,0.4,0,0.61,0c-0.2,0.2-0.4,0.4-0.6,0.6C114.44,77.89,114.44,77.68,114.43,77.48z"/>
			<path class="st9" d="M113.87,78.65c0.2-0.2,0.4-0.4,0.61-0.61C114.27,78.24,114.07,78.45,113.87,78.65z"/>
			<path class="st9" d="M113.3,79.21c0.2-0.2,0.4-0.4,0.61-0.61C113.71,78.81,113.5,79.01,113.3,79.21z"/>
			<path class="st9" d="M115.6,78.61c-0.2,0.2-0.4,0.4-0.61,0.61C115.2,79.01,115.4,78.81,115.6,78.61z"/>
			<path class="st9" d="M112.73,79.78c0.2-0.2,0.41-0.41,0.61-0.61C113.14,79.38,112.94,79.58,112.73,79.78z"/>
			<path class="st9" d="M115.04,79.17c-0.2,0.2-0.41,0.41-0.61,0.61C114.63,79.58,114.83,79.37,115.04,79.17z"/>
			<path class="st9" d="M114.47,79.73c0,0.21,0,0.41,0,0.62c-0.06-0.14-0.15-0.28-0.18-0.44C114.28,79.87,114.4,79.79,114.47,79.73z
				"/>
			<path class="st9" d="M112.73,80.33l0.03-0.03L112.73,80.33z"/>
			<path class="st9" d="M113.34,82.02c0.19-0.19,0.38-0.37,0.57-0.56c0,0-0.04-0.03-0.04-0.03c0,0.2,0,0.4,0,0.6
				c0,0,0.04-0.03,0.04-0.03c-0.2,0-0.4,0-0.61-0.01L113.34,82.02z"/>
			<path class="st9" d="M115,81.47c0.2-0.01,0.41-0.03,0.61-0.04c-0.2,0.19-0.41,0.38-0.61,0.57c0,0,0.04,0.03,0.04,0.03
				c0-0.2,0-0.4,0-0.6L115,81.47z"/>
			<path class="st9" d="M113.34,82.58c-0.07-0.13-0.15-0.26-0.19-0.4c-0.01-0.03,0.12-0.1,0.19-0.16c0,0-0.04-0.03-0.04-0.03
				c0,0.2,0,0.41,0,0.61L113.34,82.58z"/>
			<path class="st9" d="M106.57,84.85c-0.2,0-0.4,0-0.6,0c0-0.2,0-0.4,0-0.6C106.17,84.45,106.37,84.65,106.57,84.85z"/>
			<path class="st9" d="M112.22,78.61c-0.17,0.36-0.33,0.72-0.5,1.08l-0.16,0.11c-0.35-0.4-0.7-0.8-1.05-1.2l-0.04,0.04
				C111.06,78.63,111.64,78.62,112.22,78.61z"/>
			<path class="st9" d="M112.21,75.79c0,0.2-0.01,0.4-0.01,0.59c-0.38-0.01-0.77-0.02-1.15-0.03c0,0,0.03,0.04,0.03,0.04
				c0-0.2,0-0.4,0-0.6l-0.03,0.03C111.44,75.81,111.82,75.8,112.21,75.79z"/>
			<path class="st9" d="M111.05,76.35c-0.19,0.19-0.38,0.38-0.58,0.57c0,0,0.04,0.03,0.04,0.03c-0.01-0.2-0.02-0.4-0.03-0.59
				c0.2,0.01,0.39,0.02,0.59,0.03L111.05,76.35z"/>
			<path class="st9" d="M111.65,77.51c0.19-0.19,0.38-0.38,0.56-0.57l-0.03-0.03c-0.19,0.19-0.38,0.38-0.57,0.56L111.65,77.51z"/>
			<path class="st9" d="M111.61,77.48c-0.03,0.07-0.07,0.15-0.1,0.22c0.05-0.06,0.09-0.12,0.14-0.19L111.61,77.48z"/>
			<path class="st9" d="M113.35,77.47c-0.2,0.2-0.41,0.41-0.61,0.61C112.94,77.88,113.14,77.68,113.35,77.47z"/>
			<path class="st9" d="M112.78,78.04c-0.2,0.21-0.41,0.41-0.61,0.62C112.37,78.45,112.58,78.25,112.78,78.04z"/>
			<path class="st9" d="M110.49,75.25c0.2-0.01,0.4-0.02,0.59-0.03c-0.01,0.2-0.02,0.4-0.03,0.6c0,0,0.03-0.03,0.03-0.03
				c-0.2,0.01-0.4,0.02-0.6,0.03c0.01-0.2,0.03-0.4,0.04-0.6L110.49,75.25z"/>
			<path class="st9" d="M110.52,74.66c-0.01,0.2-0.02,0.4-0.03,0.59c0,0,0.04-0.03,0.04-0.03c-0.39,0-0.78,0-1.16,0l0.03,0.03
				c-0.01-0.2-0.02-0.4-0.04-0.6C109.74,74.66,110.13,74.66,110.52,74.66z"/>
			<path class="st9" d="M108.81,75.81c-0.01-0.19-0.01-0.39-0.02-0.59c0.2,0.01,0.4,0.02,0.59,0.03c0,0-0.03-0.03-0.03-0.03
				c-0.19,0.19-0.38,0.38-0.58,0.57L108.81,75.81z"/>
			<path class="st9" d="M108.25,76.38c-0.01-0.19-0.01-0.39-0.02-0.58c0.19,0,0.39,0.01,0.58,0.02c0,0-0.03-0.02-0.03-0.02
				c0,0.2,0,0.4,0,0.6c0,0,0.03-0.03,0.03-0.03c-0.19,0-0.39,0-0.58,0L108.25,76.38z"/>
			<path class="st9" d="M110.78,61.3c-0.57,0.49-1.14,0.98-1.71,1.46c-0.13-0.11-0.25-0.22-0.38-0.33c0.27-0.37,0.49-0.79,0.82-1.09
				c0.26-0.24,0.66-0.33,1-0.49C110.6,61.01,110.69,61.15,110.78,61.3z"/>
			<path class="st9" d="M110.53,65.1c0.28-0.3,0.55-0.61,0.83-0.91c0.08,0.1,0.16,0.2,0.24,0.3c-0.37,0.19-0.73,0.39-1.1,0.58
				L110.53,65.1z"/>
			<path class="st9" d="M116.68,62.29c0.19,0.55,0.38,1.11,0.58,1.66l0.04-0.03c-0.19-0.55-0.39-1.11-0.58-1.66L116.68,62.29z"/>
			<path class="st9" d="M117.26,63.95c0.16,0.31,0.31,0.61,0.47,0.92c-0.11,0.03-0.23,0.05-0.34,0.08
				c-0.03-0.34-0.06-0.69-0.09-1.03C117.3,63.92,117.26,63.95,117.26,63.95z"/>
			<path class="st9" d="M114.47,64.52c0.1-0.26,0.2-0.53,0.29-0.79c0.11,0.07,0.21,0.15,0.32,0.22c-0.21,0.18-0.43,0.36-0.64,0.54
				C114.44,64.49,114.47,64.52,114.47,64.52z"/>
			<path class="st9" d="M116.72,62.26c-0.19-0.38-0.38-0.75-0.57-1.13l-0.03,0.03c0.19,0.38,0.38,0.75,0.57,1.13L116.72,62.26z"/>
			<path class="st9" d="M107.14,61.7c0.37-0.18,0.74-0.36,1.12-0.54l-0.03-0.03c-0.37,0.18-0.74,0.36-1.12,0.54L107.14,61.7z"/>
			<path class="st9" d="M113.36,66.74c-0.15-0.05-0.3-0.1-0.31-0.11c0.01,0.01,0.15,0.07,0.29,0.14L113.36,66.74z"/>
			<polygon class="st9" points="116.28,66.52 116.09,66.57 116.12,66.42 			"/>
			<path class="st9" d="M115.03,59.41c0-0.37,0-0.75-0.01-1.12l-0.04-0.03c0,0.39,0.01,0.79,0.01,1.18L115.03,59.41z"/>
			<path class="st9" d="M107.66,58.87c-0.37,0.18-0.75,0.36-1.12,0.55l0.03,0.04c0-0.2,0-0.39,0-0.59l-0.04,0.04
				c0.39,0,0.78,0,1.17,0L107.66,58.87z"/>
			<path class="st9" d="M115.57,60.02c0.18,0.38,0.36,0.76,0.54,1.14l0.03-0.03c-0.18-0.38-0.37-0.76-0.55-1.14L115.57,60.02z"/>
			<path class="st9" d="M110.5,65.06c-0.12,0.12-0.24,0.23-0.36,0.35c0.13-0.11,0.26-0.21,0.39-0.32L110.5,65.06z"/>
			<polygon class="st9" points="115.96,64.93 115.84,65.14 115.76,64.92 			"/>
			<path class="st9" d="M108.25,61.15c0.19-0.19,0.38-0.38,0.56-0.57l-0.03-0.03c-0.19,0.19-0.37,0.38-0.56,0.57L108.25,61.15z"/>
			<path class="st9" d="M106.57,62.26c0.19-0.19,0.38-0.37,0.57-0.56l-0.03-0.03c-0.19,0.19-0.38,0.38-0.56,0.56L106.57,62.26z"/>
			<path class="st9" d="M106.54,62.23l0.03,0.03L106.54,62.23z"/>
			<polygon class="st9" points="114.44,64.49 114.36,64.61 114.47,64.52 			"/>
			<path class="st9" d="M106.56,58.3l-0.04-0.03L106.56,58.3z"/>
			<path class="st9" d="M108.26,58.31c0.02-0.06,0.05-0.13,0.07-0.19c-0.03,0.05-0.07,0.11-0.1,0.16L108.26,58.31z"/>
			<path class="st9" d="M111.65,58.31l-0.03-0.03L111.65,58.31z"/>
			<path class="st9" d="M106.52,58.27c0,0.21,0,0.42,0,0.62c0,0,0.04-0.04,0.04-0.04c-0.2,0-0.39,0-0.59,0l0.04,0.03
				c0.18-0.19,0.36-0.39,0.55-0.58L106.52,58.27z"/>
			<path class="st9" d="M108.23,58.28c-0.19,0.19-0.38,0.39-0.57,0.58l0.03,0.03c0.19-0.19,0.38-0.39,0.57-0.58L108.23,58.28z"/>
			<polygon class="st9" points="111.63,58.28 111.55,58.37 111.65,58.31 			"/>
			<path class="st9" d="M105.44,59.44c0.19-0.18,0.38-0.37,0.57-0.55c0,0-0.04-0.03-0.04-0.03c0,0.2,0,0.39,0,0.59
				c0,0,0.03-0.03,0.03-0.03c-0.2,0-0.4,0-0.6,0L105.44,59.44z"/>
			<polygon class="st9" points="109.95,59.44 110.06,59.33 109.92,59.41 			"/>
			<path class="st9" d="M105.42,59.98c-0.19,0-0.38,0-0.58-0.01l0.03,0.03c0.19-0.19,0.37-0.38,0.56-0.56c0,0-0.03-0.02-0.03-0.02
				c0,0.2,0,0.4,0,0.6L105.42,59.98z"/>
			<path class="st9" d="M106.54,59.41c-0.19,0.19-0.37,0.38-0.56,0.57l0.02,0.03c0-0.2,0-0.4,0-0.6c0,0-0.03,0.03-0.03,0.03
				c0.2,0,0.39,0,0.59,0C106.56,59.45,106.54,59.41,106.54,59.41z"/>
			<path class="st9" d="M109.92,59.41c-0.19,0.19-0.38,0.38-0.56,0.57l0.03,0.03c0.19-0.19,0.38-0.38,0.56-0.57L109.92,59.41z"/>
			<path class="st9" d="M115.6,59.99c-0.19-0.19-0.38-0.39-0.58-0.58l-0.03,0.03c0.19,0.19,0.39,0.38,0.58,0.58
				C115.57,60.02,115.6,59.99,115.6,59.99z"/>
			<path class="st9" d="M104.85,59.98l0.03,0.03L104.85,59.98z"/>
			<path class="st9" d="M105.98,59.98c-0.18,0-0.37,0-0.55,0c0,0-0.02,0.03-0.02,0.03c0.2,0,0.4,0,0.6,0L105.98,59.98z"/>
			<path class="st9" d="M109.36,59.97c-0.19,0.19-0.38,0.39-0.58,0.58l0.03,0.03c0.19-0.19,0.38-0.39,0.58-0.58L109.36,59.97z"/>
			<path class="st9" d="M110.51,75.78c0,0.2,0,0.41,0.01,0.61c-0.21,0-0.41,0-0.62,0C110.11,76.18,110.31,75.98,110.51,75.78z"/>
		</g>
	</g>
	<g>
		<text transform="matrix(1 0 0 1 15.5603 111.8143)"><tspan x="0" y="0" class="st9 st10 st11">One, Two, </tspan><tspan x="82.77" y="0" class="st9 st12 st11">Truck</tspan></text>
		<g>
			<path class="st9" d="M150.69,99.12c0-0.07,0-0.15,0-0.25c-0.07,0.04-0.11,0.07-0.15,0.09c-0.02-0.01-0.04-0.02-0.05-0.02
				c0.1-0.42,0.31-0.78,0.57-1.12c-0.01,0.09-0.01,0.19-0.02,0.28c0.02,0,0.05,0.01,0.07,0.01c0.09-0.22,0.18-0.43,0.26-0.65
				c-0.02-0.01-0.04-0.02-0.06-0.03c-0.09,0.13-0.17,0.26-0.26,0.39c0.1-0.49,0.38-0.91,0.61-1.35c0.06-0.13,0.08-0.27,0.13-0.41
				c0.07-0.18,0.14-0.35,0.23-0.52c0.44-0.8,0.83-1.62,1.16-2.47c0.13-0.33,0.31-0.65,0.5-0.95c-0.14,0.33-0.29,0.66-0.41,1
				c-0.1,0.28-0.16,0.58-0.23,0.86c-0.07,0.28-0.21,0.53-0.34,0.78c-0.06,0.13-0.09,0.25,0.01,0.37c-0.05-0.01-0.11-0.02-0.1-0.02
				c-0.14,0.11-0.23,0.18-0.35,0.27c-0.01,0.14-0.01,0.32-0.05,0.48c-0.04,0.15-0.13,0.28-0.19,0.42c-0.03,0.09-0.04,0.18-0.06,0.27
				c0.03,0.01,0.07,0.02,0.1,0.03c0.09-0.22,0.19-0.45,0.29-0.67c0.12-0.26,0.24-0.53,0.35-0.79c0.05-0.21,0.13-0.38,0.29-0.54
				c0.1-0.1,0.1-0.3,0.15-0.45c0.03-0.09,0.06-0.18,0.09-0.29c0.06,0.05,0.09,0.08,0.09,0.09c0.12-0.13,0.25-0.25,0.37-0.38
				c-0.01-0.01-0.02-0.02-0.03-0.03c-0.04,0.02-0.08,0.05-0.12,0.08c-0.03-0.14-0.07-0.28,0.17-0.22c0.02,0,0.08-0.1,0.09-0.16
				c0.02-0.18,0.04-0.36,0.18-0.5c0.07-0.07,0.15-0.19,0.03-0.3c-0.02-0.02-0.03-0.09-0.01-0.12c0.13-0.28,0.27-0.56,0.41-0.83
				c0.01-0.01,0.04-0.01,0.1-0.04c-0.14,0.33-0.38,0.59-0.35,0.95c0.23-0.43,0.45-0.86,0.71-1.34c-0.02,0.16-0.03,0.26-0.05,0.38
				c0.06,0,0.11,0,0.18-0.01c-0.28,0.77-0.56,1.53-0.84,2.29c0.01,0.01,0.03,0.02,0.04,0.03c0.07-0.09,0.14-0.17,0.21-0.27
				c0.02,0.04,0.05,0.08,0.09,0.15c0.04-0.08,0.06-0.14,0.09-0.21c-0.07-0.04-0.13-0.06-0.2-0.1c0.01-0.02,0.02-0.06,0.04-0.07
				c0.18-0.07,0.3-0.18,0.42-0.38c0.03-0.05,0.07-0.09,0.14-0.18c-0.02,0.14-0.03,0.22-0.04,0.3c0.02,0.01,0.05,0.03,0.07,0.04
				c0.02-0.08,0.04-0.15,0.06-0.23c0.02,0.01,0.04,0.02,0.06,0.03c-0.02,0.17-0.05,0.34-0.07,0.51c0,0,0.07,0.01,0.11,0.02
				c-0.01,0.07-0.02,0.14-0.03,0.27c0.29-0.2,0.03-0.49,0.2-0.69c0.02,0.05,0.04,0.11,0.08,0.23c0.04-0.22,0.07-0.36,0.09-0.49
				c-0.1-0.04-0.18-0.07-0.25-0.1c0.01-0.01,0.01-0.02,0.02-0.04c0.11,0,0.21-0.01,0.32-0.01c0.05-0.15,0.1-0.3,0.14-0.45
				c0.02,0.01,0.04,0.01,0.06,0.02c-0.09,0.29-0.19,0.59-0.29,0.93c0.24-0.08,0.2-0.27,0.25-0.4c0.06-0.15,0.11-0.3,0.19-0.51
				c-0.01,0.3,0,0.55-0.03,0.79c-0.02,0.15-0.09,0.28-0.13,0.43c-0.09,0.3-0.17,0.6-0.26,0.9c-0.01,0.02,0.01,0.05,0.03,0.12
				c0.09-0.24,0.17-0.45,0.25-0.65c0.02,0.01,0.04,0.01,0.06,0.02c-0.1,0.31-0.2,0.61-0.29,0.92c0.45-0.76,0.52-1.66,0.97-2.46
				c-0.08,0.03-0.11,0.05-0.15,0.06c0.03-0.08,0.05-0.15,0.08-0.24c0.13,0.01,0.16,0.05,0.12,0.21c-0.07,0.25-0.05,0.52-0.11,0.78
				c-0.08,0.38-0.21,0.74-0.3,1.12c-0.03,0.13-0.01,0.27-0.02,0.41c0.02,0.01,0.04,0.01,0.05,0.02c0.13-0.36,0.35-0.72,0.36-1.08
				c0.03-0.66,0.39-1.2,0.45-1.89c0.06,0.07,0.09,0.09,0.13,0.14c0.06-0.18,0.12-0.35,0.18-0.52c0.02,0,0.03,0,0.05,0
				c0,0.05,0.02,0.11,0.01,0.15c-0.25,0.78-0.51,1.55-0.77,2.33c-0.03,0.1-0.15,0.21,0,0.33c0.02,0.02-0.03,0.12-0.06,0.18
				c-0.67,1.66-1.35,3.32-2.02,4.98c-0.16,0.39-0.34,0.77-0.49,1.15c-0.04,0.1-0.01,0.22-0.03,0.33c-0.02,0.12-0.04,0.24-0.09,0.34
				c-0.69,1.43-1.4,2.85-2.08,4.29c-0.33,0.69-0.59,1.4-0.89,2.1c-0.35,0.81-0.72,1.6-1.07,2.41c-0.27,0.6-0.53,1.21-0.8,1.81
				c-0.08,0.17-0.24,0.31-0.29,0.48c-0.06,0.24-0.16,0.33-0.41,0.31c-0.18-0.01-0.37,0.03-0.55,0.05c-0.04,0-0.09,0.02-0.11,0
				c-0.2-0.19-0.42-0.07-0.66-0.04c0.04-0.21-0.07-0.22-0.24-0.24c-0.19-0.02-0.38-0.13-0.56-0.2c-0.06-0.19-0.04-0.38-0.23-0.54
				c-0.12-0.1-0.14-0.32-0.2-0.49c-0.06-0.16-0.13-0.32-0.17-0.48c-0.05-0.23-0.09-0.46-0.12-0.69c-0.02-0.13,0-0.26,0.01-0.4
				c0-0.04,0.03-0.09,0.06-0.13c0.02-0.05,0.07-0.09,0.07-0.13c0.01-0.43,0.34-0.74,0.43-1.15c0.08-0.41,0.28-0.8,0.42-1.2
				c0.14-0.4,0.25-0.81,0.42-1.2c0.48-1.08,0.96-2.15,1.48-3.21c0.17-0.36,0.46-0.67,0.69-1c0.04-0.05,0.06-0.12,0.09-0.19
				c0.05,0.02,0.09,0.03,0.11,0.03c0.12-0.27,0.24-0.53,0.36-0.79c0.02,0.01,0.05,0.01,0.07,0.02c-0.02,0.08-0.02,0.15-0.05,0.22
				c-0.03,0.07-0.07,0.14-0.06,0.23c0.33-0.56,0.66-1.11,0.98-1.67c-0.19,0.41-0.36,0.83-0.56,1.23c-0.15,0.29-0.16,0.59-0.19,0.9
				c0.54-0.21,0.34-0.69,0.43-1.03c0.09-0.02,0.16-0.03,0.23-0.04c-0.05,0.15-0.1,0.3-0.15,0.45c0.01,0.01,0.03,0.01,0.04,0.02
				c0.09-0.16,0.17-0.33,0.26-0.49c-0.02-0.01-0.04-0.02-0.05-0.04c-0.03,0.02-0.07,0.05-0.1,0.07c0.06-0.24-0.1-0.56,0.23-0.71
				c0.09-0.18,0.16-0.4,0.29-0.56c0.15-0.19,0.24-0.36,0.11-0.58c0.16-0.03,0.4-0.31,0.37-0.44c-0.01-0.03-0.11-0.07-0.15-0.06
				c-0.24,0.08-0.26,0.31-0.31,0.52c-0.02,0.06,0.01,0.15-0.02,0.19C150.97,98.78,150.83,98.95,150.69,99.12z M152.62,96.33
				c-0.02-0.02-0.04-0.04-0.07-0.06c-0.09,0.11-0.21,0.21-0.27,0.34c-0.1,0.2-0.17,0.42-0.24,0.64c-0.07,0.19-0.08,0.39-0.27,0.56
				c-0.16,0.14-0.21,0.41-0.32,0.64c0.04-0.01,0.07-0.02,0.14-0.04c-0.08,0.23-0.16,0.44-0.24,0.64c0.01,0.01,0.03,0.01,0.04,0.02
				C151.8,98.15,152.21,97.24,152.62,96.33z M154.22,95.09c0.03,0.01,0.05,0.02,0.08,0.02c0.06-0.18,0.12-0.35,0.18-0.53
				c0.05-0.15,0.09-0.3,0.18-0.43c0.12-0.17,0.13-0.25-0.09-0.43C154.62,94.25,154.17,94.6,154.22,95.09z M150.8,100.2
				c0.18-0.33,0.35-0.66,0.52-0.97c-0.07-0.06-0.12-0.1-0.17-0.14C150.91,99.47,150.78,99.83,150.8,100.2z M151.87,96.89
				c-0.03,0-0.06-0.01-0.09-0.01c-0.08,0.18-0.17,0.36-0.24,0.54c-0.08,0.18-0.03,0.23,0.19,0.21
				C151.77,97.38,151.82,97.14,151.87,96.89z M152.55,98.04c0.33-0.39,0.36-0.59,0.18-0.68C152.67,97.59,152.61,97.82,152.55,98.04z
				 M154.15,95.28c-0.16,0.09-0.32,0.52-0.28,0.83C153.97,95.81,154.06,95.55,154.15,95.28z M153.06,95.23
				c-0.02-0.01-0.04-0.02-0.06-0.02c-0.13,0.32-0.25,0.64-0.38,0.95c0.02,0.01,0.04,0.02,0.06,0.02
				C152.81,95.87,152.94,95.55,153.06,95.23z M153.67,96.54c-0.02-0.01-0.05-0.02-0.07-0.03c-0.11,0.29-0.22,0.59-0.33,0.88
				c0.02,0.01,0.03,0.01,0.05,0.02C153.43,97.12,153.55,96.83,153.67,96.54z M154.88,93.22c-0.04,0.14-0.08,0.28-0.13,0.42
				C155.09,93.6,154.97,93.4,154.88,93.22z M153.61,94.39c-0.09,0.15-0.26,0.27-0.18,0.46c0.02,0.01,0.05,0.01,0.07,0.02
				C153.53,94.71,153.57,94.55,153.61,94.39z"/>
			<path class="st9" d="M147.72,117.6c-0.07,0.05-0.15,0.09-0.16,0.14c-0.09,0.47-0.39,0.82-0.68,1.19
				c0.18,0.06,0.16,0.13,0.02,0.22c-0.27,0.19-0.53,0.41-0.8,0.6c-0.05,0.04-0.15,0.02-0.22,0.03c-0.02,0-0.06-0.02-0.06-0.01
				c-0.09,0.15-0.22,0.02-0.3,0.05c-0.39,0.14-0.67-0.16-1.01-0.23c-0.05-0.01-0.1-0.06-0.13-0.11c-0.25-0.39-0.5-0.77-0.73-1.17
				c-0.14-0.24-0.26-0.5-0.36-0.76c-0.07-0.18-0.16-0.35,0.13-0.49c0.19-0.09,0.18-0.36,0.08-0.55c0.15-0.14,0.28-0.27,0.42-0.38
				c0.1-0.08,0.22-0.12,0.32-0.2c0.05-0.03,0.08-0.1,0.09-0.16c0.02-0.09,0-0.18,0.01-0.27c0.01-0.14,0.07-0.21,0.23-0.23
				c0.15-0.02,0.31-0.09,0.43-0.18c0.45-0.35,0.96-0.44,1.5-0.33c0.13,0.02,0.28,0.13,0.36,0.25c0.28,0.41,0.56,0.82,0.61,1.35
				c0.03,0.38,0.16,0.75,0.25,1.13C147.73,117.53,147.72,117.58,147.72,117.6z"/>
			<path class="st9" d="M155.43,91.57c0,0.13,0,0.27,0,0.42c-0.18,0.08-0.26,0.3-0.16,0.52c-0.05,0.04-0.11,0.08-0.17,0.13
				c-0.06-0.06-0.11-0.11-0.17-0.17c-0.04,0.06-0.07,0.12-0.11,0.18c-0.13-0.17-0.05-0.34,0.17-0.38c-0.1-0.14-0.07-0.24,0.1-0.32
				c0.02-0.01,0.05-0.03,0.06-0.06C155.17,91.71,155.23,91.57,155.43,91.57z"/>
			<path class="st9" d="M157.55,89.17c-0.21,0.67-0.43,1.35-0.66,2.09c-0.05-0.08-0.09-0.13-0.09-0.16c0.02-0.08,0.06-0.15,0.1-0.22
				c0.06-0.15,0.13-0.31-0.11-0.42c0.23,0.06,0.25-0.06,0.3-0.23c0.11-0.36,0.27-0.71,0.41-1.07
				C157.51,89.16,157.53,89.16,157.55,89.17z"/>
			<path class="st9" d="M156.11,89.42c0.09-0.07,0.18-0.14,0.27-0.2c-0.02,0.15-0.04,0.29-0.06,0.43c-0.02,0-0.04,0.01-0.05,0.01
				C156.22,89.58,156.17,89.5,156.11,89.42z"/>
			<path class="st9" d="M155.63,90.21c-0.21-0.2,0.09-0.26,0.07-0.34C155.69,89.94,155.66,90.08,155.63,90.21z"/>
			<path class="st9" d="M155.52,91.12c0.06-0.25,0.1-0.43,0.14-0.62c0.03,0.01,0.05,0.01,0.08,0.02
				C155.6,90.68,155.75,90.93,155.52,91.12z"/>
		</g>
	</g>
</g>
<g>
	<defs>
		<ellipse id="SVGID_1_" cx="241.13" cy="42.98" rx="42.5" ry="42.98"/>
	</defs>
	<clipPath id="SVGID_2_">
		<use xlink:href="#SVGID_1_"  style="overflow:visible;"/>
	</clipPath>
	
		<radialGradient id="SVGID_3_" cx="192.7648" cy="5.5916" r="47.1962" gradientTransform="matrix(9.171787e-17 1.4979 -1.4979 9.171787e-17 226.004 -269.9386)" gradientUnits="userSpaceOnUse">
		<stop  offset="0" style="stop-color:#FFFFFF;stop-opacity:0.3"/>
		<stop  offset="1" style="stop-color:#FFFFFF;stop-opacity:0"/>
	</radialGradient>
	<polygon class="st16" points="146.94,89.49 146.94,-51.9 288.32,-51.9 288.32,89.49 	"/>
</g>
</svg>
