<?xml version="1.0" encoding="utf-8"?>
<!-- Generator: Adobe Illustrator 24.1.1, SVG Export Plug-In . SVG Version: 6.00 Build 0)  -->
<svg version="1.1" id="Livello_1" xmlns="http://www.w3.org/2000/svg" xmlns:xlink="http://www.w3.org/1999/xlink" x="0px" y="0px"
	 viewBox="0 0 244.57 65.62" style="enable-background:new 0 0 244.57 65.62;" xml:space="preserve">
<style type="text/css">
	.st0{fill:#7985C1;}
	.st1{fill:#4153A0;}
	.st2{opacity:0.6;}
	.st3{fill:#293171;}
	.st4{opacity:0.7;fill:#9FA7D5;}
	.st5{opacity:0.7;}
	.st6{fill:#9FA7D5;}
	.st7{fill:#706F6F;}
	.st8{opacity:0.3;}
	.st9{fill:#FFFFFF;}
	.st10{font-family:'Montserrat-Medium';}
	.st11{font-size:23.8153px;}
	.st12{font-family:'Montserrat-SemiBold';}
	.st13{opacity:0.5;}
	.st14{clip-path:url(#SVGID_2_);}
	.st15{opacity:0.5;fill:#9D9D9C;}
	.st16{clip-path:url(#SVGID_2_);fill:url(#SVGID_3_);}
	.st17{opacity:0.2;}
	.st18{clip-path:url(#SVGID_2_);fill:url(#SVGID_4_);}
	.st19{clip-path:url(#SVGID_6_);}
	.st20{clip-path:url(#SVGID_6_);fill:url(#SVGID_7_);}
	.st21{clip-path:url(#SVGID_6_);fill:url(#SVGID_8_);}
	.st22{clip-path:url(#SVGID_10_);}
	.st23{clip-path:url(#SVGID_10_);fill:url(#SVGID_11_);}
	.st24{clip-path:url(#SVGID_10_);fill:url(#SVGID_12_);}
	.st25{clip-path:url(#SVGID_14_);}
	.st26{clip-path:url(#SVGID_14_);fill:url(#SVGID_15_);}
	.st27{clip-path:url(#SVGID_14_);fill:url(#SVGID_16_);}
	.st28{clip-path:url(#SVGID_18_);}
	.st29{clip-path:url(#SVGID_18_);fill:url(#SVGID_19_);}
	.st30{clip-path:url(#SVGID_18_);fill:url(#SVGID_20_);}
	.st31{clip-path:url(#SVGID_22_);}
	.st32{clip-path:url(#SVGID_22_);fill:url(#SVGID_23_);}
	.st33{clip-path:url(#SVGID_22_);fill:url(#SVGID_24_);}
</style>
<g>
	<text transform="matrix(1 0 0 1 10.7014 40.8026)"><tspan x="0" y="0" class="st9 st10 st11">One, Two, </tspan><tspan x="133.27" y="0" class="st9 st12 st11">Truck</tspan></text>
	<g>
		<path class="st9" d="M228.29,20.36c0-0.12,0-0.23,0-0.4c-0.11,0.07-0.18,0.11-0.24,0.15c-0.03-0.01-0.06-0.03-0.09-0.04
			c0.16-0.67,0.5-1.25,0.92-1.8c-0.01,0.15-0.02,0.3-0.03,0.45c0.04,0.01,0.08,0.01,0.12,0.02c0.14-0.35,0.28-0.7,0.42-1.05
			c-0.03-0.01-0.07-0.03-0.1-0.04c-0.14,0.21-0.28,0.42-0.42,0.64c0.17-0.8,0.62-1.46,0.98-2.17c0.1-0.2,0.13-0.44,0.21-0.66
			c0.11-0.28,0.23-0.57,0.37-0.84c0.71-1.29,1.33-2.61,1.86-3.98c0.21-0.54,0.51-1.04,0.8-1.54c-0.23,0.54-0.47,1.06-0.67,1.61
			c-0.16,0.45-0.25,0.93-0.37,1.39c-0.12,0.45-0.34,0.85-0.55,1.26c-0.1,0.2-0.15,0.4,0.01,0.6c-0.09-0.02-0.18-0.03-0.16-0.03
			c-0.22,0.17-0.37,0.29-0.56,0.44c-0.02,0.22-0.02,0.51-0.09,0.78c-0.06,0.24-0.21,0.45-0.3,0.68c-0.05,0.14-0.06,0.29-0.09,0.44
			c0.06,0.02,0.11,0.03,0.17,0.05c0.15-0.36,0.3-0.73,0.46-1.09c0.19-0.43,0.38-0.85,0.57-1.27c0.07-0.34,0.2-0.62,0.47-0.87
			c0.16-0.16,0.17-0.48,0.24-0.73c0.04-0.14,0.09-0.29,0.15-0.47c0.09,0.09,0.14,0.13,0.15,0.14c0.2-0.2,0.4-0.41,0.6-0.61
			c-0.01-0.02-0.03-0.03-0.04-0.05c-0.06,0.04-0.12,0.08-0.19,0.12c-0.05-0.23-0.11-0.45,0.27-0.36c0.03,0.01,0.13-0.16,0.14-0.26
			c0.03-0.3,0.06-0.58,0.3-0.81c0.11-0.11,0.24-0.3,0.05-0.49c-0.04-0.04-0.05-0.15-0.02-0.2c0.21-0.45,0.44-0.9,0.66-1.34
			c0.01-0.02,0.06-0.02,0.16-0.06c-0.22,0.54-0.6,0.96-0.56,1.53c0.36-0.69,0.73-1.38,1.14-2.16c-0.03,0.25-0.05,0.42-0.08,0.61
			c0.1,0,0.17-0.01,0.29-0.01c-0.46,1.24-0.91,2.46-1.36,3.68c0.02,0.02,0.04,0.03,0.06,0.05c0.11-0.14,0.22-0.28,0.34-0.43
			c0.04,0.06,0.08,0.13,0.14,0.24c0.06-0.13,0.1-0.23,0.15-0.33c-0.12-0.06-0.21-0.1-0.32-0.16c0.02-0.04,0.03-0.1,0.07-0.12
			c0.29-0.11,0.48-0.28,0.67-0.61c0.05-0.08,0.11-0.15,0.23-0.3c-0.03,0.22-0.04,0.35-0.06,0.48c0.04,0.02,0.08,0.04,0.11,0.06
			c0.03-0.12,0.06-0.25,0.09-0.37c0.03,0.02,0.06,0.04,0.1,0.06c-0.04,0.27-0.08,0.55-0.11,0.82c0,0,0.11,0.02,0.18,0.03
			c-0.01,0.12-0.03,0.23-0.05,0.43c0.47-0.32,0.05-0.8,0.33-1.11c0.03,0.09,0.06,0.17,0.12,0.36c0.06-0.35,0.11-0.59,0.14-0.79
			c-0.17-0.07-0.28-0.11-0.4-0.16c0.01-0.02,0.02-0.04,0.03-0.06c0.17-0.01,0.34-0.02,0.51-0.02c0.08-0.24,0.15-0.48,0.23-0.72
			c0.03,0.01,0.07,0.02,0.1,0.03c-0.15,0.47-0.3,0.95-0.47,1.49c0.39-0.12,0.32-0.43,0.41-0.64c0.09-0.24,0.18-0.49,0.31-0.82
			c-0.01,0.49,0,0.88-0.05,1.26c-0.03,0.23-0.14,0.46-0.21,0.69c-0.14,0.48-0.28,0.96-0.42,1.44c-0.01,0.04,0.02,0.08,0.05,0.19
			c0.15-0.39,0.28-0.72,0.4-1.05c0.03,0.01,0.06,0.02,0.1,0.03c-0.16,0.49-0.32,0.98-0.47,1.48c0.73-1.22,0.83-2.67,1.56-3.96
			c-0.12,0.05-0.17,0.07-0.24,0.1c0.04-0.13,0.08-0.25,0.13-0.38c0.21,0.02,0.25,0.09,0.19,0.34c-0.1,0.4-0.08,0.84-0.17,1.25
			c-0.13,0.61-0.33,1.2-0.48,1.8c-0.05,0.21-0.02,0.44-0.03,0.66c0.03,0.01,0.06,0.02,0.09,0.03c0.21-0.58,0.56-1.15,0.59-1.74
			c0.05-1.06,0.63-1.94,0.73-3.04c0.1,0.11,0.14,0.15,0.21,0.23c0.1-0.3,0.19-0.57,0.28-0.85c0.02,0,0.05,0,0.07,0.01
			c0.01,0.08,0.04,0.18,0.01,0.25c-0.41,1.25-0.83,2.5-1.24,3.76c-0.05,0.16-0.24,0.34,0,0.53c0.03,0.02-0.05,0.2-0.09,0.3
			c-1.08,2.67-2.17,5.34-3.26,8.01c-0.25,0.62-0.54,1.23-0.79,1.86c-0.06,0.16-0.02,0.36-0.05,0.53c-0.03,0.19-0.06,0.39-0.14,0.55
			c-1.12,2.3-2.26,4.59-3.35,6.91c-0.52,1.11-0.95,2.26-1.44,3.38c-0.57,1.3-1.15,2.58-1.73,3.88c-0.43,0.97-0.85,1.95-1.3,2.92
			c-0.12,0.27-0.39,0.49-0.46,0.77c-0.1,0.38-0.26,0.52-0.66,0.49c-0.29-0.02-0.59,0.05-0.89,0.08c-0.06,0.01-0.14,0.03-0.17,0
			c-0.32-0.31-0.68-0.11-1.06-0.07c0.06-0.33-0.1-0.35-0.38-0.38c-0.31-0.03-0.61-0.21-0.9-0.32c-0.09-0.3-0.06-0.62-0.37-0.87
			c-0.19-0.16-0.23-0.52-0.33-0.78c-0.1-0.26-0.21-0.51-0.27-0.78c-0.09-0.37-0.15-0.74-0.19-1.11c-0.02-0.21,0-0.43,0.02-0.64
			c0.01-0.07,0.05-0.14,0.09-0.2c0.04-0.07,0.12-0.14,0.12-0.21c0.01-0.7,0.55-1.19,0.69-1.86c0.13-0.66,0.45-1.29,0.68-1.93
			c0.23-0.64,0.4-1.31,0.67-1.93c0.77-1.74,1.55-3.47,2.38-5.17c0.28-0.58,0.73-1.07,1.1-1.61c0.06-0.09,0.09-0.19,0.15-0.31
			c0.07,0.02,0.14,0.05,0.17,0.06c0.2-0.44,0.39-0.86,0.58-1.27c0.04,0.01,0.07,0.02,0.11,0.03c-0.03,0.12-0.04,0.25-0.08,0.36
			c-0.04,0.12-0.12,0.22-0.1,0.38c0.53-0.9,1.05-1.79,1.58-2.69c-0.3,0.66-0.57,1.34-0.9,1.98c-0.24,0.47-0.25,0.95-0.3,1.46
			c0.87-0.34,0.55-1.11,0.69-1.65c0.15-0.03,0.25-0.04,0.36-0.06c-0.08,0.24-0.17,0.48-0.25,0.72c0.02,0.01,0.04,0.02,0.07,0.03
			c0.14-0.26,0.28-0.52,0.42-0.79c-0.03-0.02-0.06-0.04-0.09-0.06c-0.05,0.04-0.11,0.07-0.16,0.11c0.09-0.39-0.17-0.9,0.38-1.14
			c0.15-0.3,0.26-0.64,0.47-0.9c0.24-0.3,0.38-0.57,0.18-0.94c0.26-0.05,0.65-0.51,0.6-0.7c-0.01-0.05-0.17-0.12-0.24-0.1
			c-0.39,0.13-0.42,0.5-0.5,0.83c-0.03,0.1,0.01,0.24-0.04,0.31C228.73,19.82,228.51,20.09,228.29,20.36z M231.39,15.87
			c-0.04-0.03-0.07-0.07-0.11-0.1c-0.15,0.18-0.34,0.35-0.44,0.55c-0.16,0.33-0.27,0.68-0.39,1.03c-0.11,0.31-0.13,0.63-0.44,0.89
			c-0.26,0.22-0.34,0.66-0.51,1.03c0.07-0.02,0.12-0.03,0.22-0.06c-0.14,0.37-0.26,0.7-0.38,1.04c0.02,0.01,0.05,0.02,0.07,0.03
			C230.07,18.8,230.73,17.34,231.39,15.87z M233.97,13.88c0.04,0.01,0.09,0.02,0.13,0.04c0.1-0.28,0.19-0.57,0.29-0.85
			c0.09-0.23,0.15-0.49,0.29-0.69c0.19-0.27,0.2-0.4-0.14-0.69C234.62,12.52,233.88,13.08,233.97,13.88z M228.47,22.11
			c0.28-0.53,0.57-1.06,0.84-1.56c-0.12-0.1-0.2-0.17-0.28-0.23C228.63,20.93,228.43,21.51,228.47,22.11z M230.18,16.77
			c-0.05-0.01-0.1-0.02-0.15-0.02c-0.13,0.29-0.27,0.58-0.39,0.87c-0.12,0.29-0.05,0.37,0.31,0.34
			C230.02,17.57,230.1,17.17,230.18,16.77z M231.27,18.63c0.52-0.64,0.59-0.95,0.29-1.09C231.47,17.91,231.37,18.27,231.27,18.63z
			 M233.85,14.18c-0.26,0.14-0.51,0.83-0.45,1.34C233.57,15.03,233.71,14.61,233.85,14.18z M232.11,14.1
			c-0.03-0.01-0.07-0.03-0.1-0.04c-0.2,0.51-0.41,1.02-0.61,1.54c0.03,0.01,0.07,0.03,0.1,0.04C231.7,15.13,231.9,14.61,232.11,14.1
			z M233.08,16.21c-0.04-0.02-0.08-0.04-0.12-0.05c-0.18,0.47-0.35,0.94-0.53,1.42c0.03,0.01,0.05,0.02,0.08,0.03
			C232.7,17.14,232.89,16.68,233.08,16.21z M235.04,10.86c-0.07,0.22-0.14,0.45-0.2,0.67C235.36,11.47,235.17,11.15,235.04,10.86z
			 M232.99,12.75c-0.14,0.23-0.42,0.43-0.3,0.74c0.04,0.01,0.07,0.02,0.11,0.03C232.86,13.26,232.92,13.01,232.99,12.75z"/>
		<path class="st9" d="M223.51,50.12c-0.11,0.09-0.25,0.15-0.26,0.23c-0.14,0.75-0.62,1.31-1.09,1.92c0.3,0.1,0.26,0.2,0.04,0.36
			c-0.44,0.31-0.85,0.66-1.29,0.97c-0.09,0.06-0.23,0.03-0.35,0.04c-0.03,0-0.09-0.03-0.09-0.02c-0.14,0.24-0.36,0.03-0.48,0.07
			c-0.63,0.22-1.08-0.26-1.62-0.36c-0.08-0.02-0.16-0.1-0.21-0.18c-0.4-0.62-0.8-1.24-1.17-1.88c-0.23-0.39-0.42-0.8-0.58-1.22
			c-0.11-0.28-0.26-0.56,0.21-0.79c0.31-0.15,0.29-0.58,0.14-0.88c0.24-0.22,0.45-0.43,0.67-0.62c0.15-0.12,0.35-0.19,0.51-0.31
			c0.07-0.06,0.13-0.17,0.14-0.26c0.03-0.14,0-0.29,0.02-0.43c0.02-0.23,0.11-0.34,0.38-0.36c0.24-0.03,0.5-0.14,0.7-0.29
			c0.73-0.56,1.54-0.7,2.41-0.54c0.21,0.04,0.45,0.22,0.57,0.4c0.45,0.66,0.91,1.31,0.98,2.17c0.06,0.61,0.26,1.21,0.4,1.82
			C223.51,50.01,223.51,50.08,223.51,50.12z"/>
		<path class="st9" d="M235.91,8.2c0,0.22,0,0.44,0,0.67c-0.29,0.13-0.42,0.49-0.26,0.83c-0.09,0.06-0.18,0.13-0.28,0.2
			c-0.1-0.1-0.18-0.18-0.28-0.28c-0.06,0.1-0.12,0.19-0.18,0.29c-0.2-0.28-0.08-0.54,0.27-0.61c-0.17-0.23-0.12-0.38,0.16-0.52
			c0.04-0.02,0.09-0.06,0.09-0.09C235.5,8.43,235.6,8.2,235.91,8.2z"/>
		<path class="st9" d="M239.33,4.33c-0.34,1.09-0.69,2.17-1.07,3.36c-0.07-0.13-0.15-0.21-0.14-0.27c0.03-0.13,0.1-0.24,0.15-0.36
			c0.1-0.25,0.2-0.49-0.18-0.67c0.38,0.1,0.41-0.1,0.49-0.36c0.18-0.59,0.43-1.15,0.66-1.72C239.27,4.32,239.3,4.33,239.33,4.33z"/>
		<path class="st9" d="M237.01,4.74c0.15-0.12,0.29-0.22,0.43-0.33c-0.03,0.24-0.06,0.47-0.09,0.7c-0.03,0-0.06,0.01-0.09,0.01
			C237.18,5,237.1,4.88,237.01,4.74z"/>
		<path class="st9" d="M236.25,6.02c-0.34-0.32,0.14-0.41,0.12-0.54C236.34,5.58,236.29,5.8,236.25,6.02z"/>
		<path class="st9" d="M236.05,7.48c0.09-0.4,0.16-0.69,0.23-0.99c0.04,0.01,0.08,0.02,0.12,0.03
			C236.18,6.78,236.44,7.17,236.05,7.48z"/>
	</g>
</g>
</svg>
