<?xml version="1.0" encoding="utf-8"?>
<!-- Generator: Adobe Illustrator 24.1.1, SVG Export Plug-In . SVG Version: 6.00 Build 0)  -->
<svg version="1.1" id="Livello_1" xmlns="http://www.w3.org/2000/svg" xmlns:xlink="http://www.w3.org/1999/xlink" x="0px" y="0px"
	 viewBox="0 0 50 50" style="enable-background:new 0 0 50 50;" xml:space="preserve">
<style type="text/css">
	.st0{fill:#7985C1;}
	.st1{fill:#4153A0;}
	.st2{opacity:0.6;}
	.st3{fill:#293171;}
	.st4{opacity:0.7;fill:#9FA7D5;}
	.st5{opacity:0.7;}
	.st6{fill:#9FA7D5;}
	.st7{fill:#706F6F;}
	.st8{opacity:0.3;}
	.st9{fill:#FFFFFF;}
	.st10{opacity:0.5;}
	.st11{clip-path:url(#SVGID_2_);}
	.st12{opacity:0.5;fill:#9D9D9C;}
	.st13{clip-path:url(#SVGID_2_);fill:url(#SVGID_3_);}
	.st14{opacity:0.2;}
	.st15{clip-path:url(#SVGID_2_);fill:url(#SVGID_4_);}
	.st16{clip-path:url(#SVGID_6_);}
	.st17{clip-path:url(#SVGID_6_);fill:url(#SVGID_7_);}
	.st18{clip-path:url(#SVGID_6_);fill:url(#SVGID_8_);}
	.st19{clip-path:url(#SVGID_10_);}
	.st20{clip-path:url(#SVGID_10_);fill:url(#SVGID_11_);}
	.st21{clip-path:url(#SVGID_10_);fill:url(#SVGID_12_);}
	.st22{clip-path:url(#SVGID_14_);}
	.st23{clip-path:url(#SVGID_14_);fill:url(#SVGID_15_);}
	.st24{clip-path:url(#SVGID_14_);fill:url(#SVGID_16_);}
	.st25{clip-path:url(#SVGID_18_);}
	.st26{clip-path:url(#SVGID_18_);fill:url(#SVGID_19_);}
	.st27{clip-path:url(#SVGID_18_);fill:url(#SVGID_20_);}
	.st28{clip-path:url(#SVGID_22_);}
	.st29{clip-path:url(#SVGID_22_);fill:url(#SVGID_23_);}
	.st30{clip-path:url(#SVGID_22_);fill:url(#SVGID_24_);}
</style>
<g>
	<path class="st9" d="M49.14,50c-3.34,0-6.55,0-10.02,0c-0.06-11.46,0.01-22.9-0.03-34.42c-0.66-0.28-1.28-0.58-1.92-0.81
		c-3.83-1.4-7.67-2.76-11.49-4.19c-0.8-0.3-1.48-0.26-2.23,0.12c-1.11,0.57-2.26,1.07-3.53,1.66c0-2.29,0-4.42,0-6.7
		c1.18-0.55,2.43-1.14,3.69-1.72c3.21-1.48,6.41-2.97,9.63-4.4c0.46-0.21,1.09-0.31,1.55-0.16c4.61,1.53,9.21,3.12,13.81,4.69
		c0.17,0.06,0.33,0.17,0.55,0.28C49.14,19.51,49.14,34.67,49.14,50z M42.72,15.11c0,1.57,0,2.98,0,4.4c0.73,0,1.34,0,1.97,0
		c0-1.53,0-2.94,0-4.4C44,15.11,43.41,15.11,42.72,15.11z M42.72,23.23c0,1.58,0,2.99,0,4.41c0.73,0,1.34,0,1.97,0
		c0-1.53,0-2.94,0-4.41C44,23.23,43.41,23.23,42.72,23.23z M42.72,31.36c0,1.59,0,3.01,0,4.39c0.74,0,1.35,0,1.95,0
		c0-1.54,0-2.95,0-4.39C43.98,31.36,43.39,31.36,42.72,31.36z M42.68,7.02c0,1.53,0,2.89,0,4.32c0.73,0,1.38,0,2.03,0
		c0-1.5,0-2.87,0-4.32C44.03,7.02,43.41,7.02,42.68,7.02z M42.71,39.66c0,1.54,0,2.94,0,4.39c0.72,0,1.33,0,1.99,0
		c0-1.51,0-2.91,0-4.39C44.02,39.66,43.44,39.66,42.71,39.66z"/>
	<path class="st9" d="M23.37,13.22c0,12.39,0,24.51,0,36.74c-7.52,0-14.97,0-22.51,0c0-8.6,0-17.2,0-26
		C8.22,20.44,15.7,16.87,23.37,13.22z M18.15,37.38c-4.94,0.56-9.72,1.09-14.45,1.62c0,0.9,0,1.58,0,2.37
		c4.9-0.55,9.67-1.09,14.45-1.62C18.15,38.9,18.15,38.25,18.15,37.38z M3.65,29.1c4.92-1.6,9.71-3.16,14.51-4.72
		c0.02-0.52,0.05-0.9,0.05-1.28c0-0.28-0.03-0.56-0.06-1.08c-4.91,1.6-9.71,3.15-14.5,4.71C3.65,27.55,3.65,28.2,3.65,29.1z
		 M18.16,29.7c-4.95,1.1-9.74,2.17-14.58,3.25c0,0.66-0.01,1.13,0,1.61c0.01,0.18,0.06,0.36,0.13,0.72
		c4.87-1.08,9.69-2.16,14.44-3.22C18.16,31.19,18.16,30.58,18.16,29.7z M18.15,45.28c-4.9,0-9.67,0-14.49,0
		c-0.03,0.42-0.08,0.75-0.08,1.08c0.01,0.32,0.07,0.64,0.11,1c4.85,0,9.62,0,14.46,0C18.15,46.66,18.15,46.05,18.15,45.28z"/>
	<path class="st9" d="M25.73,49.96c0-12.32,0-24.51,0-36.95c3.81,1.4,7.51,2.75,11.2,4.1c0,10.99,0,21.87,0,32.86
		C33.19,49.96,29.53,49.96,25.73,49.96z"/>
</g>
</svg>
