<?xml version="1.0" encoding="utf-8"?>
<!-- Generator: Adobe Illustrator 24.1.1, SVG Export Plug-In . SVG Version: 6.00 Build 0)  -->
<svg version="1.1" id="Livello_1" xmlns="http://www.w3.org/2000/svg" xmlns:xlink="http://www.w3.org/1999/xlink" x="0px" y="0px"
	 viewBox="0 0 50 50" style="enable-background:new 0 0 50 50;" xml:space="preserve">
<style type="text/css">
	.st0{fill:#7985C1;}
	.st1{fill:#4153A0;}
	.st2{opacity:0.6;}
	.st3{fill:#293171;}
	.st4{opacity:0.7;fill:#9FA7D5;}
	.st5{opacity:0.7;}
	.st6{fill:#9FA7D5;}
	.st7{fill:#706F6F;}
	.st8{opacity:0.3;}
	.st9{fill:#FFFFFF;}
	.st10{opacity:0.5;}
	.st11{clip-path:url(#SVGID_2_);}
	.st12{opacity:0.5;fill:#9D9D9C;}
	.st13{clip-path:url(#SVGID_2_);fill:url(#SVGID_3_);}
	.st14{opacity:0.2;}
	.st15{clip-path:url(#SVGID_2_);fill:url(#SVGID_4_);}
	.st16{clip-path:url(#SVGID_6_);}
	.st17{clip-path:url(#SVGID_6_);fill:url(#SVGID_7_);}
	.st18{clip-path:url(#SVGID_6_);fill:url(#SVGID_8_);}
	.st19{clip-path:url(#SVGID_10_);}
	.st20{clip-path:url(#SVGID_10_);fill:url(#SVGID_11_);}
	.st21{clip-path:url(#SVGID_10_);fill:url(#SVGID_12_);}
	.st22{clip-path:url(#SVGID_14_);}
	.st23{clip-path:url(#SVGID_14_);fill:url(#SVGID_15_);}
	.st24{clip-path:url(#SVGID_14_);fill:url(#SVGID_16_);}
	.st25{clip-path:url(#SVGID_18_);}
	.st26{clip-path:url(#SVGID_18_);fill:url(#SVGID_19_);}
	.st27{clip-path:url(#SVGID_18_);fill:url(#SVGID_20_);}
	.st28{clip-path:url(#SVGID_22_);}
	.st29{clip-path:url(#SVGID_22_);fill:url(#SVGID_23_);}
	.st30{clip-path:url(#SVGID_22_);fill:url(#SVGID_24_);}
</style>
<g>
	<path class="st9" d="M32.31,28.52c-0.35,1.85-0.31,3.61-0.16,5.38c0.05,0.61,0.21,1.2,0.26,1.81c0.01,0.16-0.17,0.45-0.33,0.5
		c-2.41,0.74-4.82,1.45-7.24,2.15c-0.24,0.07-0.53,0.06-0.77-0.01c-2.03-0.59-4.05-1.2-6.08-1.79c-0.48-0.14-0.48-0.41-0.44-0.83
		c0.17-1.82,0.33-3.63,0.44-5.45c0.03-0.55-0.11-1.12-0.29-1.69c-0.5,1.1-0.99,2.2-1.49,3.3c-0.18,0.39-0.41,0.75-0.58,1.14
		c-0.5,1.14-1.4,1.69-2.6,1.85c-2.77,0.37-5.55,0.74-8.32,1.11c-0.66,0.09-1.32,0.24-1.99,0.29c-0.43,0.03-0.9,0.01-1.3-0.15
		c-0.88-0.33-1.51-1.71-1.42-2.9c0.09-1.12,0.67-1.87,1.74-2.17c2.68-0.75,5.36-1.49,8.05-2.2c0.56-0.15,0.88-0.42,1.14-0.94
		c1.34-2.69,2.72-5.36,4.1-8.03c1.1-2.14,2.98-3.14,5.23-3.58c3.04-0.6,6.1-0.61,9.15-0.13c2.72,0.43,4.77,1.81,5.99,4.36
		c1.19,2.47,2.48,4.89,3.68,7.36c0.27,0.55,0.61,0.83,1.19,0.98c2.65,0.69,5.3,1.41,7.94,2.14c1.29,0.36,1.86,1.18,1.8,2.52
		c-0.06,1.44-0.86,2.56-2.03,2.77c-0.36,0.06-0.76-0.04-1.14-0.09c-2.03-0.27-4.06-0.54-6.1-0.81c-1.27-0.17-2.53-0.34-3.8-0.51
		c-1.24-0.16-2.07-0.87-2.59-1.97C33.69,31.49,33.02,30.05,32.31,28.52z"/>
	<path class="st9" d="M32.27,46.3c0.24,0.62,0.68,0.5,1.1,0.44c1.15-0.15,2.29-0.3,3.44-0.44c0.19-0.02,0.39,0,0.58,0
		c0.24,1.44-0.85,2.95-2.39,3.5c-1.06,0.38-2.08,0.15-3.12-0.07c-2.32-0.49-4.64-1.02-6.97-1.47c-0.57-0.11-1.21-0.04-1.79,0.08
		c-2.15,0.42-4.29,0.9-6.43,1.35c-1.96,0.42-3.5-0.62-4.01-2.69c-0.43-1.74,0.62-3.42,2.43-3.9c6.59-1.75,13.18-3.5,19.77-5.25
		c0.25-0.07,0.52-0.13,0.76-0.23c1.33-0.58,2.63-0.12,3.94,0.06c1.06,0.15,2.12,0.32,3.18,0.53c0.27,0.05,0.58,0.22,0.76,0.43
		c1.04,1.22,1.03,2.96,0,4.26c-1.02,1.29-2.45,1.71-3.99,1.98c-2.28,0.4-4.55,0.85-6.82,1.28C32.57,46.19,32.44,46.24,32.27,46.3z"
		/>
	<path class="st9" d="M25.07,0c4.12,0.08,7.32,3.37,7.25,7.46c-0.07,3.94-3.41,7.17-7.36,7.11c-4.14-0.07-7.28-3.36-7.2-7.55
		C17.82,3.17,21.2-0.07,25.07,0z"/>
	<path class="st9" d="M20.71,39.68c-1.54,0.41-2.94,0.78-4.35,1.16c-0.94,0.26-1.89,0.48-2.8,0.83c-1.35,0.53-2.3,1.52-2.78,2.9
		c-0.17,0.5-0.4,0.58-0.89,0.47c-1.35-0.3-2.56-0.81-3.41-1.95c-1.11-1.48-0.94-3.38,0.45-4.61c0.27-0.24,0.66-0.39,1.02-0.46
		c0.95-0.19,1.94-0.25,2.87-0.5c1.35-0.36,2.56,0.12,3.81,0.44c1.86,0.49,3.73,0.99,5.59,1.49C20.36,39.5,20.47,39.57,20.71,39.68z"
		/>
</g>
</svg>
