<?xml version="1.0" encoding="utf-8"?>
<!-- Generator: Adobe Illustrator 24.1.1, SVG Export Plug-In . SVG Version: 6.00 Build 0)  -->
<svg version="1.1" id="Livello_1" xmlns="http://www.w3.org/2000/svg" xmlns:xlink="http://www.w3.org/1999/xlink" x="0px" y="0px"
	 viewBox="0 0 50 50" style="enable-background:new 0 0 50 50;" xml:space="preserve">
<style type="text/css">
	.st0{fill:#7985C1;}
	.st1{fill:#4153A0;}
	.st2{opacity:0.6;}
	.st3{fill:#293171;}
	.st4{opacity:0.7;fill:#9FA7D5;}
	.st5{opacity:0.7;}
	.st6{fill:#9FA7D5;}
	.st7{fill:#706F6F;}
	.st8{opacity:0.3;}
	.st9{fill:#FFFFFF;}
	.st10{opacity:0.5;}
	.st11{clip-path:url(#SVGID_2_);}
	.st12{opacity:0.5;fill:#9D9D9C;}
	.st13{clip-path:url(#SVGID_2_);fill:url(#SVGID_3_);}
	.st14{opacity:0.2;}
	.st15{clip-path:url(#SVGID_2_);fill:url(#SVGID_4_);}
	.st16{clip-path:url(#SVGID_6_);}
	.st17{clip-path:url(#SVGID_6_);fill:url(#SVGID_7_);}
	.st18{clip-path:url(#SVGID_6_);fill:url(#SVGID_8_);}
	.st19{clip-path:url(#SVGID_10_);}
	.st20{clip-path:url(#SVGID_10_);fill:url(#SVGID_11_);}
	.st21{clip-path:url(#SVGID_10_);fill:url(#SVGID_12_);}
	.st22{clip-path:url(#SVGID_14_);}
	.st23{clip-path:url(#SVGID_14_);fill:url(#SVGID_15_);}
	.st24{clip-path:url(#SVGID_14_);fill:url(#SVGID_16_);}
	.st25{clip-path:url(#SVGID_18_);}
	.st26{clip-path:url(#SVGID_18_);fill:url(#SVGID_19_);}
	.st27{clip-path:url(#SVGID_18_);fill:url(#SVGID_20_);}
	.st28{clip-path:url(#SVGID_22_);}
	.st29{clip-path:url(#SVGID_22_);fill:url(#SVGID_23_);}
	.st30{clip-path:url(#SVGID_22_);fill:url(#SVGID_24_);}
</style>
<g>
	<g>
		<path class="st9" d="M22.37,37.78c0.63-0.61,1.23-1.18,1.82-1.75c0,4.57,0,9.17,0,13.83c-7.59,0-15.13,0-22.65,0
			c-0.21-0.28-0.15-0.55-0.15-0.81c0-2.34-0.04-4.69,0.01-7.03c0.08-3.9,1.76-6.89,5.26-8.73c0.76-0.4,1.63-0.55,2.45-0.78
			c1.54-0.43,3.09-0.83,4.64-1.24c0.21-0.06,0.42-0.1,0.73-0.05c1.57,3.12,3.16,6.29,4.76,9.5C22.37,37.78,19.25,40.72,22.37,37.78"
			/>
		<path class="st9" d="M48.46,49.87c-7.57,0-15.14,0-22.78,0c0-4.59,0-9.13,0-13.67c0.05-0.03,0.1-0.07,0.15-0.1
			c1.53,1.53,3.05,3.05,4.64,4.64c1.6-3.21,3.19-6.37,4.76-9.52c0.85-0.01,1.54,0.28,2.25,0.45c1.74,0.42,3.48,0.84,5.2,1.36
			c1.94,0.59,3.31,1.96,4.41,3.6c1.05,1.56,1.48,3.31,1.51,5.16c0.04,2.49,0.01,4.98,0.01,7.46C48.61,49.43,48.64,49.63,48.46,49.87
			z M28.65,41.34c0.01-0.55-0.39-0.94-0.94-0.93c-0.52,0.01-0.9,0.37-0.91,0.88c-0.02,0.55,0.36,0.95,0.9,0.97
			C28.25,42.28,28.64,41.9,28.65,41.34z M28.65,47.15c-0.01-0.55-0.42-0.95-0.95-0.93c-0.53,0.02-0.92,0.45-0.9,0.99
			c0.02,0.5,0.41,0.89,0.92,0.89C28.25,48.11,28.66,47.69,28.65,47.15z"/>
		<path class="st9" d="M35.61,11.61c-7.01-1.93-14.03-1.95-21.02,0c-0.07-0.09-0.13-0.12-0.13-0.16c-0.05-2.31,0.1-4.59,1.03-6.74
			c0.93-2.14,2.59-3.44,4.79-4.1c2.38-0.7,4.8-0.72,7.24-0.48c1.32,0.13,2.58,0.44,3.78,1.02c1.93,0.92,3.13,2.47,3.77,4.47
			c0.59,1.82,0.66,3.7,0.72,5.59C35.81,11.34,35.79,11.46,35.61,11.61z M25.13,8.01c0.25-0.02,0.69-0.03,1.11-0.08
			c0.82-0.1,1.59-0.35,2.26-0.85c1.02-0.77,1.03-1.93,0.02-2.71C28.33,4.22,28.12,4.1,27.9,4c-1.32-0.61-2.71-0.71-4.13-0.51
			c-0.76,0.11-1.5,0.3-2.15,0.74c-1.3,0.88-1.28,2.14,0.03,2.98C22.66,7.86,23.79,7.99,25.13,8.01z"/>
		<path class="st9" d="M35.71,12.84c-0.1,0.56-0.16,1-0.35,1.42c-0.37,0.8-0.99,1.25-1.87,1.39c-0.82,0.13-1.62,0.02-2.42-0.11
			c-1.48-0.23-2.96-0.52-4.45-0.69c-1.81-0.2-3.57,0.04-5.35,0.26c-1.51,0.19-3.01,0.6-4.55,0.35c-1.31-0.21-2.12-1.21-2.12-2.65
			C21.63,10.76,28.65,10.82,35.71,12.84z"/>
		<path class="st9" d="M14.52,16.67c0.57,0.19,1.1,0.53,1.73,0.66c0.28,1.25,0.21,2.52,0.45,3.75c0.43,0.18,0.76-0.19,1.19-0.11
			c0.24,0.52,0.32,1.12,0.42,1.69c0.4,2.37,1.94,3.91,3.77,5.2c1.42,1,4.79,0.68,6.11-0.45c0.43-0.37,0.84-0.78,1.25-1.18
			c1.09-1.03,1.66-2.31,1.94-3.76c0.1-0.51,0.16-1.03,0.37-1.51c0.39-0.05,0.7,0.22,1.14,0.17c0.3-1.11,0.22-2.29,0.42-3.49
			c0.58-0.15,1.17-0.3,1.81-0.46c0.1,0.88-0.11,1.7-0.17,2.52c-0.02,0.31-0.09,0.62-0.09,0.93c0,1.18-0.47,2.04-1.63,2.38
			c-0.27,0.38-0.27,0.8-0.39,1.18c-0.43,1.42-1.33,2.51-2.3,3.58c-1.68,1.84-3.7,2.67-6.2,2.51c-1.7-0.1-3.17-0.55-4.42-1.74
			c-1.2-1.15-2.38-2.29-2.97-3.89c-0.07-0.18-0.14-0.36-0.18-0.54c-0.14-0.61-0.29-1.16-1-1.42c-0.5-0.19-0.8-0.68-0.9-1.23
			c-0.25-1.46-0.29-2.95-0.45-4.42C14.41,16.92,14.41,16.8,14.52,16.67z"/>
		<path class="st9" d="M26.82,35.19c-0.27-0.27-0.53-0.54-0.87-0.88c2.29-2.18,4.56-4.34,6.93-6.6c0.41,1.07,0.76,1.98,1.12,2.93
			c-1.27,2.58-2.54,5.16-3.84,7.79c-0.51-0.26-0.77-0.64-1.09-0.95c-0.31-0.3-0.47-0.48-0.82-0.82c-0.38-0.33-0.16-0.15-0.92-0.96"
			/>
		<path class="st9" d="M22.13,36c-0.8,0.81-1.57,1.64-2.47,2.35c-0.66-1.01-1.18-2.1-1.71-3.18c-0.68-1.39-1.35-2.79-2.05-4.18
			c-0.17-0.33-0.19-0.6-0.03-0.94c0.37-0.79,0.7-1.61,1.08-2.51c2.35,2.24,4.62,4.41,6.93,6.62c-0.34,0.44-0.73,0.63-1,1.01
			C22.13,36,22.88,35.17,22.13,36"/>
		<path class="st9" d="M25,7.27c-0.96-0.02-1.9-0.16-2.76-0.62c-0.38-0.2-0.77-0.44-0.77-0.94c0-0.47,0.36-0.73,0.73-0.9
			c1.86-0.87,3.73-0.87,5.59,0.01c0.17,0.08,0.32,0.21,0.45,0.35c0.38,0.4,0.38,0.71-0.02,1.12c-0.29,0.3-0.65,0.48-1.04,0.61
			C26.47,7.13,25.75,7.28,25,7.27z"/>
	</g>
	<g>
		<path class="st9" d="M22.37,37.78c0.63-0.61,1.23-1.18,1.82-1.75c0,4.57,0,9.17,0,13.83c-7.59,0-15.13,0-22.65,0
			c-0.21-0.28-0.15-0.55-0.15-0.81c0-2.34-0.04-4.69,0.01-7.03c0.08-3.9,1.76-6.89,5.26-8.73c0.76-0.4,1.63-0.55,2.45-0.78
			c1.54-0.43,3.09-0.83,4.64-1.24c0.21-0.06,0.42-0.1,0.73-0.05c1.57,3.12,3.16,6.29,4.76,9.5C22.37,37.78,19.25,40.72,22.37,37.78"
			/>
		<path class="st9" d="M48.46,49.87c-7.57,0-15.14,0-22.78,0c0-4.59,0-9.13,0-13.67c0.05-0.03,0.1-0.07,0.15-0.1
			c1.53,1.53,3.05,3.05,4.64,4.64c1.6-3.21,3.19-6.37,4.76-9.52c0.85-0.01,1.54,0.28,2.25,0.45c1.74,0.42,3.48,0.84,5.2,1.36
			c1.94,0.59,3.31,1.96,4.41,3.6c1.05,1.56,1.48,3.31,1.51,5.16c0.04,2.49,0.01,4.98,0.01,7.46C48.61,49.43,48.64,49.63,48.46,49.87
			z M28.65,41.34c0.01-0.55-0.39-0.94-0.94-0.93c-0.52,0.01-0.9,0.37-0.91,0.88c-0.02,0.55,0.36,0.95,0.9,0.97
			C28.25,42.28,28.64,41.9,28.65,41.34z M28.65,47.15c-0.01-0.55-0.42-0.95-0.95-0.93c-0.53,0.02-0.92,0.45-0.9,0.99
			c0.02,0.5,0.41,0.89,0.92,0.89C28.25,48.11,28.66,47.69,28.65,47.15z"/>
		<path class="st9" d="M35.61,11.61c-7.01-1.93-14.03-1.95-21.02,0c-0.07-0.09-0.13-0.12-0.13-0.16c-0.05-2.31,0.1-4.59,1.03-6.74
			c0.93-2.14,2.59-3.44,4.79-4.1c2.38-0.7,4.8-0.72,7.24-0.48c1.32,0.13,2.58,0.44,3.78,1.02c1.93,0.92,3.13,2.47,3.77,4.47
			c0.59,1.82,0.66,3.7,0.72,5.59C35.81,11.34,35.79,11.46,35.61,11.61z M25.13,8.01c0.25-0.02,0.69-0.03,1.11-0.08
			c0.82-0.1,1.59-0.35,2.26-0.85c1.02-0.77,1.03-1.93,0.02-2.71C28.33,4.22,28.12,4.1,27.9,4c-1.32-0.61-2.71-0.71-4.13-0.51
			c-0.76,0.11-1.5,0.3-2.15,0.74c-1.3,0.88-1.28,2.14,0.03,2.98C22.66,7.86,23.79,7.99,25.13,8.01z"/>
		<path class="st9" d="M35.71,12.84c-0.1,0.56-0.16,1-0.35,1.42c-0.37,0.8-0.99,1.25-1.87,1.39c-0.82,0.13-1.62,0.02-2.42-0.11
			c-1.48-0.23-2.96-0.52-4.45-0.69c-1.81-0.2-3.57,0.04-5.35,0.26c-1.51,0.19-3.01,0.6-4.55,0.35c-1.31-0.21-2.12-1.21-2.12-2.65
			C21.63,10.76,28.65,10.82,35.71,12.84z"/>
		<path class="st9" d="M14.52,16.67c0.57,0.19,1.1,0.53,1.73,0.66c0.28,1.25,0.21,2.52,0.45,3.75c0.43,0.18,0.76-0.19,1.19-0.11
			c0.24,0.52,0.32,1.12,0.42,1.69c0.4,2.37,1.94,3.91,3.77,5.2c1.42,1,4.79,0.68,6.11-0.45c0.43-0.37,0.84-0.78,1.25-1.18
			c1.09-1.03,1.66-2.31,1.94-3.76c0.1-0.51,0.16-1.03,0.37-1.51c0.39-0.05,0.7,0.22,1.14,0.17c0.3-1.11,0.22-2.29,0.42-3.49
			c0.58-0.15,1.17-0.3,1.81-0.46c0.1,0.88-0.11,1.7-0.17,2.52c-0.02,0.31-0.09,0.62-0.09,0.93c0,1.18-0.47,2.04-1.63,2.38
			c-0.27,0.38-0.27,0.8-0.39,1.18c-0.43,1.42-1.33,2.51-2.3,3.58c-1.68,1.84-3.7,2.67-6.2,2.51c-1.7-0.1-3.17-0.55-4.42-1.74
			c-1.2-1.15-2.38-2.29-2.97-3.89c-0.07-0.18-0.14-0.36-0.18-0.54c-0.14-0.61-0.29-1.16-1-1.42c-0.5-0.19-0.8-0.68-0.9-1.23
			c-0.25-1.46-0.29-2.95-0.45-4.42C14.41,16.92,14.41,16.8,14.52,16.67z"/>
		<path class="st9" d="M26.82,35.19c-0.27-0.27-0.53-0.54-0.87-0.88c2.29-2.18,4.56-4.34,6.93-6.6c0.41,1.07,0.76,1.98,1.12,2.93
			c-1.27,2.58-2.54,5.16-3.84,7.79c-0.51-0.26-0.77-0.64-1.09-0.95c-0.31-0.3-0.47-0.48-0.82-0.82c-0.38-0.33-0.16-0.15-0.92-0.96"
			/>
		<path class="st9" d="M22.13,36c-0.8,0.81-1.57,1.64-2.47,2.35c-0.66-1.01-1.18-2.1-1.71-3.18c-0.68-1.39-1.35-2.79-2.05-4.18
			c-0.17-0.33-0.19-0.6-0.03-0.94c0.37-0.79,0.7-1.61,1.08-2.51c2.35,2.24,4.62,4.41,6.93,6.62c-0.34,0.44-0.73,0.63-1,1.01
			C22.13,36,22.88,35.17,22.13,36"/>
		<path class="st9" d="M25,7.27c-0.96-0.02-1.9-0.16-2.76-0.62c-0.38-0.2-0.77-0.44-0.77-0.94c0-0.47,0.36-0.73,0.73-0.9
			c1.86-0.87,3.73-0.87,5.59,0.01c0.17,0.08,0.32,0.21,0.45,0.35c0.38,0.4,0.38,0.71-0.02,1.12c-0.29,0.3-0.65,0.48-1.04,0.61
			C26.47,7.13,25.75,7.28,25,7.27z"/>
	</g>
</g>
</svg>
