<?xml version="1.0" encoding="utf-8"?>
<!-- Generator: Adobe Illustrator 24.1.1, SVG Export Plug-In . SVG Version: 6.00 Build 0)  -->
<svg version="1.1" id="Livello_1" xmlns="http://www.w3.org/2000/svg" xmlns:xlink="http://www.w3.org/1999/xlink" x="0px" y="0px"
	 viewBox="0 0 50 50" style="enable-background:new 0 0 50 50;" xml:space="preserve">
<style type="text/css">
	.st0{fill:#7985C1;}
	.st1{fill:#4153A0;}
	.st2{opacity:0.6;}
	.st3{fill:#293171;}
	.st4{opacity:0.7;fill:#9FA7D5;}
	.st5{opacity:0.7;}
	.st6{fill:#9FA7D5;}
	.st7{fill:#706F6F;}
	.st8{opacity:0.3;}
	.st9{fill:#FFFFFF;}
	.st10{opacity:0.5;}
	.st11{clip-path:url(#SVGID_2_);}
	.st12{opacity:0.5;fill:#9D9D9C;}
	.st13{clip-path:url(#SVGID_2_);fill:url(#SVGID_3_);}
	.st14{opacity:0.2;}
	.st15{clip-path:url(#SVGID_2_);fill:url(#SVGID_4_);}
	.st16{clip-path:url(#SVGID_6_);}
	.st17{clip-path:url(#SVGID_6_);fill:url(#SVGID_7_);}
	.st18{clip-path:url(#SVGID_6_);fill:url(#SVGID_8_);}
	.st19{clip-path:url(#SVGID_10_);}
	.st20{clip-path:url(#SVGID_10_);fill:url(#SVGID_11_);}
	.st21{clip-path:url(#SVGID_10_);fill:url(#SVGID_12_);}
	.st22{clip-path:url(#SVGID_14_);}
	.st23{clip-path:url(#SVGID_14_);fill:url(#SVGID_15_);}
	.st24{clip-path:url(#SVGID_14_);fill:url(#SVGID_16_);}
	.st25{clip-path:url(#SVGID_18_);}
	.st26{clip-path:url(#SVGID_18_);fill:url(#SVGID_19_);}
	.st27{clip-path:url(#SVGID_18_);fill:url(#SVGID_20_);}
	.st28{clip-path:url(#SVGID_22_);}
	.st29{clip-path:url(#SVGID_22_);fill:url(#SVGID_23_);}
	.st30{clip-path:url(#SVGID_22_);fill:url(#SVGID_24_);}
</style>
<g>
	<path class="st9" d="M50,37.01c-0.85,0.87-1.94,0.81-3,0.71c-0.26-0.02-0.63-0.35-0.72-0.62c-1.23-3.59-3.47-5.34-6.85-5.29
		c-3.16,0.05-5.5,2.03-6.53,5.54c-0.03,0.11-0.1,0.22-0.15,0.32c-1.3-0.18-1.8-0.69-1.82-2.01c-0.03-2.55-0.01-5.11-0.01-7.66
		c0-3.5,0-7.01,0-10.51c0-2.49,0.4-2.9,2.84-2.9c2.31,0,4.62,0.07,6.92-0.03c1.58-0.07,2.71,0.54,3.57,1.77
		c1.93,2.76,3.83,5.54,5.75,8.31C50,28.76,50,32.88,50,37.01z M46.95,26.11c-0.1-0.37-0.11-0.59-0.22-0.74
		c-1.51-2.15-3.02-4.3-4.56-6.43c-0.17-0.23-0.55-0.44-0.83-0.45c-1.51-0.04-3.01-0.02-4.57-0.02c0,2.62,0,5.1,0,7.65
		C40.17,26.11,43.48,26.11,46.95,26.11z"/>
	<path class="st9" d="M19.44,37.75c-1.2-3.95-3.53-5.94-6.88-5.94c-3.07-0.01-5.69,1.95-6.56,5.03c-0.2,0.7-0.45,0.96-1.15,0.92
		c-0.9-0.05-1.81,0-2.72-0.01c-1.45-0.03-2.09-0.65-2.12-2.13c-0.03-1.73-0.01-3.46-0.01-5.2c0-6.93,0-13.86,0-20.78
		c0-2.22,0.57-2.82,2.74-2.82c7.84,0,15.67,0,23.51,0c2.13,0,2.7,0.58,2.7,2.72c0,8.54,0,17.07,0,25.61c0,2.11-0.5,2.6-2.64,2.6
		C24.02,37.75,21.72,37.75,19.44,37.75z"/>
	<path class="st9" d="M39.62,43.18c-2.46,0.01-4.47-2-4.47-4.46c0-2.4,1.98-4.41,4.38-4.45c2.46-0.04,4.52,1.96,4.53,4.41
		C44.06,41.15,42.08,43.17,39.62,43.18z"/>
	<path class="st9" d="M8.15,38.74c0-2.52,1.96-4.48,4.45-4.46c2.44,0.02,4.48,2.09,4.45,4.52c-0.03,2.36-2.08,4.38-4.44,4.39
		C10.11,43.2,8.15,41.24,8.15,38.74z"/>
</g>
</svg>
